<svg height="512pt" viewBox="0 0 512 512" width="512pt" xmlns="http://www.w3.org/2000/svg"><path d="m368 331 40-60 26.542969-15h62.457031v90h-113.882812c-8.300782-8.121094-15.113282-14.996094-15.117188-15zm0 0" fill="#9abadb"/><path d="m348.101562 361 9.898438-15 10-15h114v-60h-37.898438l-.050781.074219-.023437-.074219h-36.027344l10-15 9.898438-15h84.101562v90l-39.519531 30zm0 0" fill="#d62f2d"/><path d="m144 331-40-60-26.542969-15h-62.457031v90h113.882812c8.300782-8.121094 15.113282-14.996094 15.117188-15zm0 0" fill="#e0f4ff"/><path d="m163.898438 361-9.898438-15-10-15h-114v-60h37.898438l.050781.074219.023437-.074219h36.027344l-10-15-9.898438-15h-84.101562v90l39.519531 30zm0 0" fill="#c27526"/><path d="m512 331v151h-256c-237.300781 0 5.898438 0-256 0v-151h199.601562l56.398438 28.199219 56.398438-28.199219zm0 0" fill="#eda637"/><path d="m512 331v151h-256v-122.800781l56.398438-28.199219zm0 0" fill="#ed3e3c"/><path d="m392.800781 98.597656c-51.601562-19.796875-50.402343-33.898437-52.199219-71.996094-52.5 14.097657-59.101562 4.898438-84.601562-26.601562-34.199219 42.300781-46.800781 36.800781-84.601562 26.601562-2.699219 55.199219-16.5 58.199219-52.199219 71.996094 21.898437 33.601563 29.699219 43.5 0 88.800782 51.601562 19.800781 50.402343 33.902343 52.199219 72.003906 52.5-14.101563 59.101562-3.902344 84.601562 27.597656 34.800781-43.199219 48-37.5 84.601562-27.597656 2.699219-55.203125 16.5-58.203125 52.199219-72.003906-29.699219-45.597657-21.898437-54.898438 0-88.800782zm0 0" fill="#f7dc4d"/><path d="m256 287v-287c25.5 31.5 32.101562 40.699219 84.601562 26.601562 1.796876 38.097657.597657 52.199219 52.199219 71.996094-21.898437 33.902344-29.699219 43.203125 0 88.800782-35.699219 13.800781-49.5 16.800781-52.199219 72.003906-36.601562-9.902344-49.800781-15.601563-84.601562 27.597656zm0 0" fill="#eda637"/><path d="m241 68h30v90h-30zm0 0" fill="#7c8388"/><path d="m241 188h30v30h-30zm0 0" fill="#7c8388"/><path d="m331 452c0-33.089844 26.910156-60 60-60s60 26.910156 60 60-26.910156 60-60 60-60-26.910156-60-60zm0 0" fill="#575f64"/><path d="m391 482c16.539062 0 30-13.460938 30-30s-13.460938-30-30-30-30 13.460938-30 30 13.460938 30 30 30zm0 0" fill="#bbdcff"/><path d="m121 512c-33.089844 0-60-26.910156-60-60s26.910156-60 60-60 60 26.910156 60 60-26.910156 60-60 60zm0 0" fill="#7c8388"/><path d="m121 482c-16.539062 0-30-13.460938-30-30s13.460938-30 30-30 30 13.460938 30 30-13.460938 30-30 30zm0 0" fill="#e0f4ff"/><path d="m256 68h15v90h-15zm0 0" fill="#575f64"/><path d="m256 188h15v30h-15zm0 0" fill="#575f64"/><path d="m196 392h120v30h-120zm0 0" fill="#bbdcff"/><path d="m256 392h60v30h-60zm0 0" fill="#9abadb"/></svg>