<svg id="flat" height="512" viewBox="0 0 512 512" width="512" xmlns="http://www.w3.org/2000/svg"><path d="m216 24h272v336h-272z" fill="#548aff"/><g fill="#4976f2"><path d="m488 348.68v11.32h-11.32l-50.34-50.34 11.32-11.32z"/><path d="m488 24v11.32l-50.34 50.34-11.32-11.32 50.34-50.34z"/><path d="m277.66 74.34-11.32 11.32-50.34-50.34v-11.32h11.32z"/></g><path d="m256 64h192v256h-192z" fill="#9ce6ed"/><path d="m256 176 96 85.333v58.667h-96z" fill="#00b55b"/><path d="m448 248-56-40-136 72v40h192z" fill="#02c26a"/><path d="m224 224a30.7386 30.7386 0 0 0 29.82083-23.2834l2.17917-8.7166a24 24 0 0 0 24-24v-72a24 24 0 0 0 -24-24 24 24 0 0 1 -24-24 24 24 0 0 0 -24-24h-22.11147a28.94425 28.94425 0 0 0 -25.88853 16 28.94425 28.94425 0 0 0 -25.88852-16h-22.11148a24 24 0 0 0 -24 24 24 24 0 0 1 -24 24 24 24 0 0 0 -24 24v72a24 24 0 0 0 24 24l2.17915 8.7166a30.7386 30.7386 0 0 0 29.82085 23.2834z" fill="#f78e00"/><path d="m224 416 72-88v-24a40 40 0 0 0 -40-40h-32v-96h-128v96h-32a40 40 0 0 0 -40 40v24l72 88z" fill="#ffc431"/><path d="m112 168v32.00006a63.99993 63.99993 0 0 0 63.99993 63.99994h48.00007v-96z" fill="#ffb401"/><path d="m200 296a48.03865 48.03865 0 0 0 -9.53613.95447 117.12272 117.12272 0 0 0 8.66992-31.98377l.9707-7.94091-15.88183-1.94141-.96973 7.94092a101.77391 101.77391 0 0 1 -23.75879 53.73449 47.97494 47.97494 0 0 0 -39.49414-20.76379h-32v16h32a32.03635 32.03635 0 0 1 32 32v16h16v-16a32.03635 32.03635 0 0 1 32-32h32v-16z" fill="#ffb401"/><path d="m264 416h-208l-16 24v48h240v-48z" fill="#ffc431"/><path d="m264 416h-208l-16 24h240z" fill="#ffb401"/><circle cx="344" cy="152" fill="#ffa100" r="32"/><path d="m224 104h-53.88191a32 32 0 0 1 -27.43977-15.53614l-14.67832-24.46386-11.9769 29.94225a16 16 0 0 1 -14.85563 10.05775h-5.16747v80.00006a63.99994 63.99994 0 0 0 63.99994 63.99994h.00012a63.99994 63.99994 0 0 0 63.99994-63.99994z" fill="#ffc431"/><circle cx="128" cy="136" fill="#ffa100" r="8"/><circle cx="192" cy="136" fill="#ffa100" r="8"/><path d="m152 176h-8v-16h8a8.00917 8.00917 0 0 0 8-8v-24h16v24a24.0275 24.0275 0 0 1 -24 24z" fill="#ffb401"/><path d="m176 216h-22.11133a36.74411 36.74411 0 0 1 -33.04394-20.42188l14.31054-7.15624a20.83107 20.83107 0 0 0 18.7334 11.57812h22.11133z" fill="#ffb401"/></svg>