<svg id="Layer_1" enable-background="new 0 0 512 512" height="512" viewBox="0 0 512 512" width="512" xmlns="http://www.w3.org/2000/svg"><g><g><path d="m408 224c-.5 0-.9 0-1.3.1-3.3-9.4-12.2-16.1-22.7-16.1-11.4 0-20.9 7.9-23.4 18.5-2.5-1.6-5.4-2.5-8.6-2.5-8.8 0-16 7.2-16 16 0 2.6.6 5 1.7 7.1l-17.7 8.9h88c8.8 0 16-7.2 16-16s-7.2-16-16-16z" fill="#d7e6f0"/></g><g><path d="m224 288h-104c-4.4 0-8 3.6-8 8v8h128c0-8.8-7.2-16-16-16z" fill="#a5c3dc"/></g><g><path d="m144 288h-24c-4.4 0-8 3.6-8 8v8h48c0-8.8-7.2-16-16-16z" fill="#d7e6f0"/></g><g><path d="m88 320h-48c-4.4 0-8 3.6-8 8v32h64v-32c0-4.4-3.6-8-8-8z" fill="#463c4b"/></g><g><path d="m64 320h-24c-4.4 0-8 3.6-8 8v32h40v-32c0-4.4-3.6-8-8-8z" fill="#555a6e"/></g><g><path d="m320.7 400h-272.7c-8.8 0-16-7.2-16-16v-24c0-8.8 7.2-16 16-16h48v-24c0-8.8 7.2-16 16-16h376c4.4 0 8 3.6 8 8 0 5.1-2 10-5.7 13.7l-7 7c-43.1 43.1-101.6 67.3-162.6 67.3z" fill="#7daf41"/></g><g><path d="m488 304h-112c4.4 0 8 3.6 8 8 0 5.1-2 10-5.7 13.7l-7 7c-43.1 43.1-101.6 67.3-162.6 67.3h112c61 0 119.5-24.2 162.6-67.4l7-7c3.6-3.6 5.7-8.5 5.7-13.7 0-4.3-3.6-7.9-8-7.9z" fill="#466932"/></g><g><path d="m461.7 416c-11.7 0-18-5.9-22.6-10.2-3.9-3.6-6.3-5.8-11.7-5.8s-7.8 2.2-11.7 5.8c-4.6 4.3-10.9 10.2-22.6 10.2s-18-5.9-22.6-10.2c-3.9-3.6-6.3-5.8-11.7-5.8s-7.8 2.2-11.7 5.8c-4.6 4.3-10.9 10.2-22.6 10.2s-18-5.9-22.6-10.2c-3.9-3.6-6.3-5.8-11.7-5.8s-7.8 2.2-11.7 5.8c-4.5 4.3-10.8 10.2-22.5 10.2s-18-5.9-22.6-10.2c-3.9-3.6-6.3-5.8-11.7-5.8s-7.8 2.2-11.7 5.8c-4.6 4.3-10.9 10.2-22.6 10.2s-18-5.9-22.6-10.2c-3.9-3.6-6.3-5.8-11.7-5.8s-7.8 2.2-11.7 5.8c-4.6 4.3-10.9 10.2-22.6 10.2s-18-5.9-22.6-10.2c-3.9-3.6-6.3-5.8-11.7-5.8s-7.8 2.2-11.7 5.8c-4.5 4.3-10.8 10.2-22.5 10.2s-18-5.9-22.6-10.2c-3.9-3.6-6.3-5.8-11.7-5.8-4.4 0-8-3.6-8-8s3.6-8 8-8c11.7 0 18 5.9 22.6 10.2 3.9 3.6 6.3 5.8 11.7 5.8s7.8-2.2 11.7-5.8c4.6-4.3 10.9-10.2 22.6-10.2s18 5.9 22.6 10.2c3.9 3.6 6.3 5.8 11.7 5.8s7.8-2.2 11.7-5.8c4.6-4.3 10.9-10.2 22.6-10.2s18 5.9 22.6 10.2c3.9 3.6 6.3 5.8 11.7 5.8s7.8-2.2 11.7-5.8c4.6-4.3 10.9-10.2 22.6-10.2s18 5.9 22.6 10.2c3.9 3.6 6.3 5.8 11.7 5.8s7.8-2.2 11.7-5.8c4.6-4.3 10.9-10.2 22.6-10.2s18 5.9 22.6 10.2c3.9 3.6 6.3 5.8 11.7 5.8s7.8-2.2 11.7-5.8c4.6-4.3 10.9-10.2 22.6-10.2s18 5.9 22.6 10.2c3.9 3.6 6.3 5.8 11.7 5.8s7.8-2.2 11.7-5.8c4.6-4.3 10.9-10.2 22.6-10.2s18 5.9 22.6 10.2c3.9 3.6 6.3 5.8 11.7 5.8s7.8-2.2 11.7-5.8c4.6-4.3 10.9-10.2 22.6-10.2 4.4 0 8 3.6 8 8s-3.6 8-8 8c-5.4 0-7.8 2.2-11.7 5.8-4.8 4.3-11.1 10.2-22.8 10.2z" fill="#64afe1"/></g><g><path d="m461.7 448c-11.7 0-18-5.9-22.6-10.2-3.9-3.6-6.3-5.8-11.7-5.8-4.4 0-8-3.6-8-8s3.6-8 8-8c11.7 0 18 5.9 22.6 10.2 3.9 3.6 6.3 5.8 11.7 5.8s7.8-2.2 11.7-5.8c4.6-4.3 10.9-10.2 22.6-10.2 4.4 0 8 3.6 8 8s-3.6 8-8 8c-5.4 0-7.8 2.2-11.7 5.8-4.6 4.3-10.9 10.2-22.6 10.2z" fill="#64afe1"/></g><g><path d="m324.6 448c-11.7 0-18-5.9-22.6-10.2-3.9-3.6-6.3-5.8-11.7-5.8s-7.8 2.2-11.7 5.8c-4.6 4.3-10.9 10.2-22.6 10.2s-18-5.9-22.6-10.2c-3.9-3.6-6.3-5.8-11.7-5.8s-7.8 2.2-11.7 5.8c-4.6 4.3-10.9 10.2-22.6 10.2s-18-5.9-22.6-10.2c-3.9-3.6-6.3-5.8-11.7-5.8-4.4 0-8-3.6-8-8s3.6-8 8-8c11.7 0 18 5.9 22.6 10.2 3.9 3.6 6.3 5.8 11.7 5.8s7.8-2.2 11.7-5.8c4.6-4.3 10.9-10.2 22.6-10.2s18 5.9 22.6 10.2c3.9 3.6 6.3 5.8 11.7 5.8s7.8-2.2 11.7-5.8c4.6-4.3 10.9-10.2 22.6-10.2s18 5.9 22.6 10.2c3.9 3.6 6.3 5.8 11.7 5.8s7.8-2.2 11.7-5.8c4.6-4.3 10.9-10.2 22.6-10.2 4.4 0 8 3.6 8 8s-3.6 8-8 8c-5.4 0-7.8 2.2-11.7 5.8-4.6 4.3-10.9 10.2-22.6 10.2z" fill="#64afe1"/></g><g><path d="m50.3 448c-11.7 0-18-5.9-22.6-10.2-3.9-3.6-6.3-5.8-11.7-5.8-4.4 0-8-3.6-8-8s3.6-8 8-8c11.7 0 18 5.9 22.6 10.2 3.9 3.6 6.3 5.8 11.7 5.8s7.8-2.2 11.7-5.8c4.6-4.3 10.9-10.2 22.6-10.2 4.4 0 8 3.6 8 8s-3.6 8-8 8c-5.4 0-7.8 2.2-11.7 5.8-4.6 4.3-10.9 10.2-22.6 10.2z" fill="#64afe1"/></g><g><g><path d="m400 304h-160l-50.3-50.3c-5-5-1.5-13.7 5.7-13.7h120.8c12.7 0 24.9 5.1 33.9 14.1z" fill="#463c4b"/></g></g><path d="m483.4 332.6 7-7c1.7-1.7 3-3.6 3.9-5.7h-398.3v24h375.1c4.2-3.5 8.3-7.3 12.3-11.3z" fill="#d7e6f0"/><path d="m494.3 320h-112c-.9 2.1-2.3 4-3.9 5.7l-7 7c-3.9 3.9-8 7.7-12.2 11.4h112c4.2-3.6 8.3-7.4 12.2-11.4l7-7c1.6-1.7 2.9-3.6 3.9-5.7z" fill="#a5c3dc"/><g><path d="m240 304 64-64h-108.7c-7.1 0-10.7 8.6-5.7 13.7z" fill="#555a6e"/></g><g><path d="m152 160c-.5 0-.9 0-1.3.1-3.3-9.4-12.2-16.1-22.7-16.1-11.4 0-20.9 7.9-23.4 18.5-2.5-1.6-5.4-2.5-8.6-2.5-8.8 0-16 7.2-16 16 0 2.6.6 5 1.7 7.1l-17.7 8.9h88c8.8 0 16-7.2 16-16s-7.2-16-16-16z" fill="#d7e6f0"/></g><g><path d="m344 80c-.5 0-.9 0-1.3.1-3.3-9.4-12.2-16.1-22.7-16.1-11.4 0-20.9 7.9-23.4 18.5-2.5-1.6-5.4-2.5-8.6-2.5-8.8 0-16 7.2-16 16 0 2.6.6 5 1.7 7.1l-17.7 8.9h88c8.8 0 16-7.2 16-16s-7.2-16-16-16z" fill="#d7e6f0"/></g></g></svg>