<?xml version="1.0" encoding="iso-8859-1"?>
<!-- Generator: Adobe Illustrator 19.0.0, SVG Export Plug-In . SVG Version: 6.00 Build 0)  -->
<svg version="1.1" id="Capa_1" xmlns="http://www.w3.org/2000/svg" xmlns:xlink="http://www.w3.org/1999/xlink" x="0px" y="0px"
	 viewBox="0 0 512 512" style="enable-background:new 0 0 512 512;" xml:space="preserve">
<g>
	<path style="fill:#B5E5DC;" d="M299.596,125.062c-4.268,0-7.726-3.459-7.726-7.726v-58.6c0-4.267,3.459-7.726,7.726-7.726
		s7.726,3.459,7.726,7.726v58.6C307.322,121.603,303.863,125.062,299.596,125.062z"/>
	<path style="fill:#B5E5DC;" d="M212.404,125.062c-4.267,0-7.726-3.459-7.726-7.726v-58.6c0-4.267,3.459-7.726,7.726-7.726
		s7.726,3.459,7.726,7.726v58.6C220.131,121.603,216.672,125.062,212.404,125.062z"/>
</g>
<path style="fill:#80C1B4;" d="M498.917,422.07v54.455c0,5.522-4.471,9.993-10.003,9.993H23.086c-5.532,0-10.003-4.471-10.003-9.993
	V422.07H498.917z"/>
<rect x="13.08" y="422.07" style="fill:#59AA97;" width="485.83" height="37.499"/>
<path style="fill:#FE9700;" d="M512,132.899v301.575c0,6.459-5.233,11.703-11.703,11.703H11.703C5.244,446.177,0,440.933,0,434.474
	V132.899c0-6.459,5.244-11.703,11.703-11.703h488.594C506.767,121.196,512,126.439,512,132.899z"/>
<g>
	<path style="fill:#F26200;" d="M204.244,276.753v33.605c0,12.063-9.807,21.871-21.871,21.871h-63.645
		c-12.053,0-21.871-9.807-21.871-21.871v-33.605c0-9.704,6.346-17.935,15.102-20.789V121.196h77.573v134.912
		C198.083,259.085,204.244,267.203,204.244,276.753z"/>
	<path style="fill:#F26200;" d="M415.142,276.753v33.605c0,12.063-9.818,21.871-21.871,21.871h-63.645
		c-12.063,0-21.871-9.807-21.871-21.871v-33.605c0-9.704,6.346-17.935,15.102-20.789V121.196h77.573v134.912
		C408.982,259.085,415.142,267.203,415.142,276.753z"/>
	<path style="fill:#F26200;" d="M90.501,121.196c0,49.902-40.599,90.501-90.501,90.501v-78.799c0-6.459,5.244-11.703,11.703-11.703
		h78.798V121.196z"/>
	<path style="fill:#F26200;" d="M512,132.899v78.788c-0.227,0.01-0.453,0.01-0.68,0.01c-49.902,0-90.501-40.599-90.501-90.501
		h79.478C506.767,121.196,512,126.439,512,132.899z"/>
	<path style="fill:#F26200;" d="M90.501,446.177H11.703C5.244,446.177,0,440.933,0,434.474v-78.799
		C49.902,355.675,90.501,396.275,90.501,446.177z"/>
	<path style="fill:#F26200;" d="M512,355.686v78.788c0,6.459-5.233,11.703-11.703,11.703h-79.478
		c0-49.902,40.599-90.501,90.501-90.501C511.547,355.675,511.773,355.675,512,355.686z"/>
</g>
<g>
	<path style="fill:#80C1B4;" d="M77.109,121.195c0,42.594-34.515,77.109-77.109,77.109v-65.405c0-6.46,5.244-11.704,11.704-11.704
		H77.109z"/>
	<path style="fill:#80C1B4;" d="M512,132.898v65.393c-0.231,0.012-0.45,0.012-0.681,0.012c-42.594,0-77.109-34.515-77.109-77.109
		h66.086C506.768,121.195,512,126.438,512,132.898z"/>
	<path style="fill:#80C1B4;" d="M77.109,446.177H11.704C5.244,446.177,0,440.933,0,434.473v-65.405
		C42.594,369.068,77.109,403.583,77.109,446.177z"/>
	<path style="fill:#80C1B4;" d="M512,369.08v65.393c0,6.46-5.232,11.704-11.704,11.704H434.21c0-42.594,34.515-77.109,77.109-77.109
		C511.55,369.068,511.769,369.068,512,369.08z"/>
</g>
<path style="fill:#B5E5DC;" d="M176.14,116.405v163.799c0,3.204-2.596,5.8-5.8,5.8h-39.178c-3.214,0-5.81-2.596-5.81-5.8V116.405
	c0-3.204,2.596-5.8,5.81-5.8h39.178C173.544,110.605,176.14,113.201,176.14,116.405z"/>
<path style="fill:#80C1B4;" d="M176.14,254.882v25.322c0,3.204-2.596,5.8-5.8,5.8h-39.178c-3.214,0-5.81-2.596-5.81-5.8v-25.322
	H176.14z"/>
<path style="fill:#E4F4F0;" d="M150.553,275.012c-4.267,0-7.726-3.459-7.726-7.726V242.9c0-4.267,3.459-7.726,7.726-7.726
	s7.726,3.459,7.726,7.726v24.385C158.279,271.553,154.82,275.012,150.553,275.012z"/>
<path style="fill:#FEC007;" d="M182.375,318.838H118.73c-4.682,0-8.477-3.795-8.477-8.477v-33.613c0-4.682,3.795-8.477,8.477-8.477
	h63.645c4.682,0,8.477,3.795,8.477,8.477v33.613C190.852,315.043,187.057,318.838,182.375,318.838z"/>
<path style="fill:#B5E5DC;" d="M387.039,116.405v163.799c0,3.204-2.596,5.8-5.81,5.8h-39.178c-3.204,0-5.8-2.596-5.8-5.8V116.405
	c0-3.204,2.596-5.8,5.8-5.8h39.178C384.443,110.605,387.039,113.201,387.039,116.405z"/>
<path style="fill:#80C1B4;" d="M387.039,254.882v25.322c0,3.204-2.596,5.8-5.81,5.8h-39.178c-3.204,0-5.8-2.596-5.8-5.8v-25.322
	H387.039z"/>
<path style="fill:#E4F4F0;" d="M361.447,275.012c-4.268,0-7.726-3.459-7.726-7.726V242.9c0-4.267,3.459-7.726,7.726-7.726
	s7.726,3.459,7.726,7.726v24.385C369.173,271.553,365.714,275.012,361.447,275.012z"/>
<path style="fill:#FEC007;" d="M393.269,318.838h-63.645c-4.682,0-8.477-3.795-8.477-8.477v-33.613c0-4.682,3.795-8.477,8.477-8.477
	h63.645c4.682,0,8.477,3.795,8.477,8.477v33.613C401.746,315.043,397.951,318.838,393.269,318.838z"/>
<path style="fill:#80C1B4;" d="M302.202,58.736h-92.404c-14.816,0-26.827-12.011-26.827-26.827l0,0c0-3.55,2.877-6.427,6.427-6.427
	h133.203c3.55,0,6.427,2.877,6.427,6.427l0,0C329.029,46.725,317.018,58.736,302.202,58.736z"/>
<g>
</g>
<g>
</g>
<g>
</g>
<g>
</g>
<g>
</g>
<g>
</g>
<g>
</g>
<g>
</g>
<g>
</g>
<g>
</g>
<g>
</g>
<g>
</g>
<g>
</g>
<g>
</g>
<g>
</g>
</svg>
