<svg id="icons" enable-background="new 0 0 64 64" height="512" viewBox="0 0 64 64" width="512" xmlns="http://www.w3.org/2000/svg"><g><g><path d="m29 45.65 2 2.35-2.11 5-2.33-6z" fill="#e6e9ed"/></g><g><path d="m37.44 47-2.33 6-2.11-5 2-2.35z" fill="#e6e9ed"/></g><g><path d="m54 53v8h-19l6-8-2-2 4-4-2-2h5c4.42 0 8 3.58 8 8z" fill="#545c66"/></g><g><path d="m46 45h-4.004c4.42 0 8 3.58 8 8v8h4.004v-8c0-4.42-3.58-8-8-8z" fill="#434a54"/></g><g><path d="m41 45 2 2-4 4 2 2-6 8h-3l3.11-8 2.33-6 1.56-4z" fill="#656d78"/></g><g><path d="m32 41c2.47 0 4.84-.47 7-1.34v.01 3.33l-1.56 4-2.44-1.35-3-1.65-3 1.65-2.44 1.35-1.56-4v-3.33-.01c2.16.87 4.53 1.34 7 1.34z" fill="#f5f7fa"/></g><g><path d="m26.56 47 2.33 6 3.11 8h-3l-6-8 2-2-4-4 2-2 2-2z" fill="#656d78"/></g><g><path d="m35 45.65-2 2.35h-2l-2-2.35 3-1.65z" fill="#ed5565"/></g><g><path d="m23 53 6 8h-19v-8c0-4.42 3.58-8 8-8h5l-2 2 4 4z" fill="#545c66"/></g><g><path d="m33 48 2.11 5-3.11 8-3.11-8 2.11-5z" fill="#da4453"/></g><g><path d="m27.99 36.45c1.28.36 2.62.55 4.01.55s2.73-.19 4.01-.55c6.17-1.7 10.74-7.26 10.98-13.91.01-.18.01-.36.01-.54 0-2.94-.85-5.69-2.31-8h-.01c-2.65-4.21-7.34-7-12.68-7s-10.03 2.79-12.68 7h-.01c-1.46 2.31-2.31 5.06-2.31 8 0 .18 0 .36.01.54.24 6.65 4.81 12.21 10.98 13.91zm4.01-33.45c10.49 0 19 8.51 19 19 0 8.02-4.97 14.88-12 17.66-2.16.87-4.53 1.34-7 1.34s-4.84-.47-7-1.34c-7.03-2.78-12-9.64-12-17.66 0-10.49 8.51-19 19-19z" fill="#656d78"/></g><g><circle cx="32" cy="22" fill="#aab2bd" r="4"/></g><g><path d="m44.69 14c1.46 2.31 2.31 5.06 2.31 8 0 .18 0 .36-.01.54-6.17 1.71-10.74 7.24-10.98 13.91-1.28.36-2.62.55-4.01.55s-2.73-.19-4.01-.55c-.24-6.67-4.811-12.2-10.98-13.91-.01-.18-.01-.36-.01-.54 0-2.94.85-5.69 2.31-8h.011 25.359zm-8.69 8c0-2.21-1.79-4-4-4s-4 1.79-4 4 1.79 4 4 4 4-1.79 4-4z" fill="#545c66"/></g></g></svg>