<svg height="512" viewBox="0 0 64 64" width="512" xmlns="http://www.w3.org/2000/svg"><g id="Icons"><g><g><path d="m32 20h4v6h-4z" fill="#fab400"/></g><g><path d="m32 20h2v6h-2z" fill="#dc9600"/></g><g><path d="m36.208 21.969c.443-2.14 1.579-4.024 3.153-5.427-.357-.334-.833-.542-1.361-.542h-10c-1.105 0-2 .895-2 2 0 1.104.895 2 2 2h3.528c.31 0 .617.072.894.211l3.155 1.578c.199.099.413.151.631.18z" fill="#505050"/></g><g><path d="m44 42v-4.343h8v4.343l-4 4z" fill="#d2aa82"/></g><g><path d="m58 28h-2v-6c0-.273-.056-.534-.155-.771-1.184.495-2.483.771-3.845.771-2.241 0-4.305-.75-5.974-2h-4.026c-1.105 0-2 .895-2 2v6h-2c-1.105 0-2 .895-2 2v.764c0 .758.428 1.45 1.106 1.789l2.894 1.447v.343c0 1.061.421 2.078 1.172 2.828l1.657 1.657c.75.75 1.768 1.172 2.828 1.172h4.686c1.061 0 2.078-.421 2.828-1.172l1.657-1.657c.75-.75 1.172-1.768 1.172-2.828v-.343l2.894-1.447c.678-.339 1.106-1.032 1.106-1.789v-.764c0-1.105-.895-2-2-2z" fill="#f0c8a0"/></g><g><path d="m34 53.816c-.314.112-.648.184-1 .184-1.654 0-3-1.346-3-3s1.346-3 3-3c.352 0 .686.072 1 .184v-1.292c0-.262.034-.517.082-.768-.349-.077-.709-.124-1.082-.124-2.761 0-5 2.239-5 5s2.239 5 5 5c.343 0 .677-.035 1-.101z" fill="#505050"/></g><g><path d="m36 43.44v-9.222c-1.236-.714-2-2.011-2-3.454v-.764c0-1.474.81-2.75 2-3.444v-.556h-4v20.101c.323-.066.657-.101 1-.101.374 0 .731.056 1.08.136.215-1.132.905-2.111 1.92-2.696z" fill="#fa6450"/></g><g><path d="m22 49h-7v-7h-2v7h-7v2h7v7h2v-7h7z" fill="#fab400"/></g><g><path d="m14 40c-5.523 0-10 4.477-10 10s4.477 10 10 10 10-4.477 10-10-4.477-10-10-10zm0 16c-3.309 0-6-2.691-6-6s2.691-6 6-6 6 2.691 6 6-2.691 6-6 6z" fill="#505050"/></g><g><path d="m15 55.91c.326.055.659.09 1 .09 3.309 0 6-2.691 6-6s-2.691-6-6-6c-.341 0-.674.035-1 .09 2.833.478 5 2.942 5 5.91s-2.167 5.431-5 5.91z" fill="#3c3c3c"/></g><g><path d="m6 50c0-5.185 3.947-9.448 9-9.95-.329-.032-.662-.05-1-.05-5.523 0-10 4.477-10 10s4.477 10 10 10c.338 0 .671-.018 1-.05-5.053-.502-9-4.765-9-9.95z" fill="#3c3c3c"/></g><g><path d="m12 26v24c0 1.105.895 2 2 2 1.105 0 2-.895 2-2v-24z" fill="#fa6450"/></g><g><path d="m14 50v-24h-2v24c0 1.105.895 2 2 2 .366 0 .705-.106 1-.277-.595-.347-1-.985-1-1.723z" fill="#dc4632"/></g><g><path d="m12 16h4v10h-4z" fill="#fab400"/></g><g><path d="m12 16h2v10h-2z" fill="#dc9600"/></g><g><path d="m20 16h-12c-1.105 0-2-.895-2-2 0-1.105.895-2 2-2h12c1.105 0 2 .895 2 2 0 1.105-.895 2-2 2z" fill="#505050"/></g><g><path d="m8 14c0-1.105.895-2 2-2h-2c-1.105 0-2 .895-2 2s.895 2 2 2h2c-1.105 0-2-.895-2-2z" fill="#3c3c3c"/></g><g><path d="m20 16c1.105 0 2-.895 2-2 0-1.105-.895-2-2-2-1.105 0-2 .895-2 2 0 1.105.895 2 2 2z" fill="#3c3c3c"/></g><g><path d="m16 30h16v4h-16z" fill="#fab400"/></g><g><path d="m14 52c-1.105 0-2-.895-2-2 0-1.105.895-2 2-2 1.105 0 2 .895 2 2 0 1.105-.895 2-2 2z" fill="#505050"/></g><g><path d="m16 30h2v4h-2z" fill="#dc9600"/></g><g><path d="m34 58h-2v-7c0-.552.448-1 1-1 .552 0 1 .448 1 1z" fill="#3cc8b4"/></g><g><path d="m32 26v20.101c.323-.066.657-.101 1-.101.345 0 .676.047 1 .115v-20.115z" fill="#dc4632"/></g><g><path d="m17 28h-1v-2h1c.552 0 1 .448 1 1 0 .552-.448 1-1 1z" fill="#505050"/></g><g><path d="m28 18c0-1.105.895-2 2-2h-2c-1.105 0-2 .895-2 2s.895 2 2 2h2c-1.105 0-2-.895-2-2z" fill="#3c3c3c"/></g><g><path d="m60 60h-20c-2.209 0-4-1.791-4-4v-9.107c0-.758.428-1.45 1.106-1.789l6.894-3.104 4 4 4-4 6.894 3.104c.678.339 1.106 1.031 1.106 1.789z" fill="#3cc8b4"/></g><g><path d="m38 56v-9.107c0-.757.428-1.45 1.106-1.789l5.515-2.483-.621-.621-6.894 3.104c-.678.339-1.106 1.031-1.106 1.789v9.107c0 2.209 1.791 4 4 4h2c-2.209 0-4-1.791-4-4z" fill="#1eaa96"/></g><g><path d="m46 30.5h-4c-.276 0-.5-.224-.5-.5s.224-.5.5-.5h4c.276 0 .5.224.5.5s-.224.5-.5.5z" fill="#be7800"/></g><g><path d="m50 36.5c-.128 0-.256-.049-.354-.146l-.586-.586c-.584-.584-1.537-.584-2.121 0l-.586.586c-.195.195-.512.195-.707 0s-.195-.512 0-.707l.586-.586c.975-.975 2.561-.975 3.535 0l.586.586c.195.195.195.512 0 .707-.097.097-.225.146-.353.146z" fill="#be7800"/></g><g><circle cx="45" cy="31" fill="#be7800" r="1"/></g><g><path d="m54 30.5h-4c-.276 0-.5-.224-.5-.5s.224-.5.5-.5h4c.276 0 .5.224.5.5s-.224.5-.5.5z" fill="#be7800"/></g><g><circle cx="51" cy="31" fill="#be7800" r="1"/></g><g><path d="m34.35 58h-4.35v2h5.54c-.518-.578-.925-1.254-1.19-2z" fill="#505050"/></g><g><path d="m42 54v-2h-6v4c0 2.209 1.791 4 4 4h9c1.657 0 3-1.343 3-3 0-1.657-1.343-3-3-3z" fill="#f0c8a0"/></g><g><path d="m38 56v-4h-2v4c0 2.209 1.791 4 4 4h2c-2.209 0-4-1.791-4-4z" fill="#d2aa82"/></g><g><path d="m42 42.9v17.1h6l-4-18z" fill="#f0f0f0"/></g><g><path d="m42 43.801 2.182-.983-.182-.818-2 .9z" fill="#d2d2d2"/></g><g><path d="m54 52h6v8h-6z" fill="#f0c8a0"/></g><g><path d="m52 22c-3.875 0-7.235-2.22-8.895-5.452-2.985 1.161-5.105 4.056-5.105 7.452v4h20v-4c0-1.247-.293-2.422-.802-3.474-1.517.929-3.293 1.474-5.198 1.474z" fill="#f0f0f0"/></g><g><path d="m48.156 21.229-4.156 2.771h4l2.891-2.065c-.958-.107-1.877-.347-2.735-.706z" fill="#d2d2d2"/></g><g><circle cx="52" cy="12" fill="#3cc8b4" r="8"/></g><g><path d="m45.983 12c0-4.082 3.059-7.443 7.009-7.932-.326-.041-.656-.068-.992-.068-4.418 0-8 3.582-8 8s3.582 8 8 8c.336 0 .666-.027.991-.068-3.949-.489-7.008-3.85-7.008-7.932z" fill="#1eaa96"/></g><g><path d="m56 11h-3v-3h-2v3h-3v2h3v3h2v-3h3z" fill="#f0f0f0"/></g><g><path d="m38 24h20v2h-20z" fill="#d2d2d2"/></g></g></g></svg>