<svg height="464pt" viewBox="-24 0 464 464.48004" width="464pt" xmlns="http://www.w3.org/2000/svg"><path d="m207.191406 0-3.679687 32h-52.320313v-5.359375c-.007812-14.714844 11.925782-26.64453125 26.636719-26.640625zm0 0" fill="#de722a"/><path d="m203.511719 32-.320313 2.480469-7.519531 45.519531h-44.480469v-48zm0 0" fill="#eecfb1"/><path d="m151.191406 24h80v16h-80zm0 0" fill="#de8d27"/><path d="m373.429688 170.078125c1.632812 8.035156-3.222657 15.960937-11.121094 18.160156-13.980469 3.769531-28.398438 5.679688-42.878906 5.683594-23.695313.046875-47.113282-5.058594-68.640626-14.960937l14.320313-28.722657c17.070313 7.714844 35.589844 11.695313 54.320313 11.683594 11.503906.039063 22.964843-1.441406 34.082031-4.402344 4.183593-1.226562 8.691406-.65625 12.441406 1.574219 3.746094 2.230469 6.398437 5.921875 7.316406 10.1875zm0 0" fill="#eecfb1"/><path d="m71.191406 128.078125 14.320313 28.5625c-29.027344 15.851563-48.824219 44.519531-53.363281 77.28125-.957032 7.925781-7.613282 13.9375-15.597657 14.078125h-.640625c-4.542968-.023438-8.851562-2.007812-11.824218-5.4375-2.972657-3.433594-4.320313-7.984375-3.695313-12.484375 5.835937-43.402344 32.175781-81.351563 70.800781-102zm0 0" fill="#eecfb1"/><path d="m265.109375 150.238281-14.320313 28.722657c-12.765624-5.960938-24.726562-13.515626-35.597656-22.480469v-41.519531c3.617188 1.6875 6.894532 4.015624 9.679688 6.878906 11.488281 11.933594 25.144531 21.574218 40.238281 28.398437zm0 0" fill="#de8d27"/><path d="m215.191406 114.960938v149.039062l-.5625 1.679688c-17.78125-6.40625-36.539062-9.683594-55.4375-9.679688h-24v-112c-6.714844-.011719-13.414062.632812-20 1.921875l-21.203125 6.636719c-2.898437 1.199218-5.730469 2.5625-8.476562 4.082031l-14.320313-28.5625c19.671875-10.574219 41.664063-16.101563 64-16.078125h66.71875c4.589844.007812 9.121094 1.019531 13.28125 2.960938zm0 0" fill="#f29a2b"/><path d="m170.710938 288.480469c-3.734376-.320313-7.574219-.480469-11.519532-.480469h-16c-3.210937-4.234375-5.527344-9.082031-6.800781-14.238281v-.082031c-.800781-5.105469-1.203125-10.269532-1.199219-15.441407v-2.238281h24c90.320313 0 163.554688 73.199219 163.597656 163.519531-.015624 10.851563-1.085937 21.675781-3.199218 32.320313-1.585938 7.386718-8.125 12.65625-15.679688 12.640625-1.652344-.003907-3.296875-.246094-4.878906-.71875-7.792969-2.585938-12.40625-10.605469-10.722656-18.640625 1.628906-8.4375 2.460937-17.007813 2.480468-25.601563-.148437-68.148437-52.203124-124.953125-120.078124-131.039062zm0 0" fill="#4e4e4e"/><path d="m170.710938 288.480469c-.082032 5.199219-.480469 10.398437-1.039063 15.519531-8.851563 75.996094-69.132813 135.742188-145.203125 143.921875-4.476562.378906-8.910156-1.152344-12.199219-4.214844-3.292969-3.0625-5.136719-7.371093-5.078125-11.867187v-.398438c.082032-7.992187 6.199219-14.628906 14.160156-15.363281 66.757813-7.296875 117.347657-63.640625 117.4375-130.796875-1.042968-3.785156-1.847656-7.632812-2.398437-11.519531 1.273437 5.15625 3.589844 10.003906 6.800781 14.238281h16c3.890625 0 7.730469.160156 11.519532.480469zm0 0" fill="#4e4e4e"/><path d="m416.230469 96-48 32-48-32zm0 0" fill="#7b7b7b"/><path d="m416.230469 96v56h-96v-56l48 32zm0 0" fill="#adabac"/><path d="m109.511719 263.761719-30.320313 56.238281-56-8 28.796875-57.601562 3.203125 1.601562zm0 0" fill="#cf631b"/><path d="m200.230469 112-65.039063 120.800781-48.960937 90.960938c-1.394531 2.59375-4.09375 4.21875-7.039063 4.238281-.375.011719-.753906-.011719-1.121094-.078125l-56-8c-2.5625-.371094-4.792968-1.949219-6-4.242187-1.199218-2.277344-1.199218-5 0-7.28125l77.917969-155.839844c6.800781-2.988282 13.910157-5.214844 21.203125-6.636719l-55.441406 110.71875-24.480469 49.039063 39.519531 5.601562 26.242188-48.722656 34.160156-63.4375 46.957032-87.121094zm0 0" fill="#de722a"/></svg>