<svg id="Flat" height="512" viewBox="0 0 512 512" width="512" xmlns="http://www.w3.org/2000/svg"><path d="m336 360h48v136h-48z" fill="#ccdce5"/><path d="m416 328v32a16 16 0 0 1 -16 16h-80a16 16 0 0 1 -16-16v-32z" fill="#ccdce5"/><path d="m216 112a64 64 0 0 1 64 64v168a0 0 0 0 1 0 0h-128a0 0 0 0 1 0 0v-168a64 64 0 0 1 64-64z" fill="#be382d"/><path d="m104 144h192v168h-192z" fill="#ccdce5"/><path d="m104 144 152 80 152-80z" fill="#abbac2"/><path d="m216 112a64 64 0 0 1 64 64v168h208v-168a64 64 0 0 0 -64-64z" fill="#ef5249"/><path d="m392 72v136h16a32 32 0 0 1 32 32 32 32 0 0 1 -32 32h-16a32 32 0 0 1 -32-32v-200h64a16 16 0 0 1 16 16 16 16 0 0 1 -16 16z" fill="#ccdce5"/><path d="m400 232h16v16h-16z" fill="#798b9b"/><path d="m312 296h16v16h-16z" fill="#e9f0f1"/><path d="m344 296h112v16h-112z" fill="#e9f0f1"/><path d="m304 344h112v16h-112z" fill="#abbac2"/><path d="m336 376h48v16h-48z" fill="#abbac2"/><path d="m24 336 24-24v-72a24 24 0 0 1 24-24h32v32l20-20a16.971 16.971 0 0 1 24 0 16.971 16.971 0 0 1 0 24l-36 36a45.255 45.255 0 0 1 0 64l-40 40z" fill="#f5be9a"/><rect fill="#ec917f" height="16" rx="8" transform="matrix(.707 -.707 .707 .707 -152.902 142.863)" width="22.627" x="84.686" y="248"/></svg>