<?xml version="1.0" encoding="iso-8859-1"?>
<!-- Generator: Adobe Illustrator 19.0.0, SVG Export Plug-In . SVG Version: 6.00 Build 0)  -->
<svg version="1.1" id="Capa_1" xmlns="http://www.w3.org/2000/svg" xmlns:xlink="http://www.w3.org/1999/xlink" x="0px" y="0px"
	 viewBox="0 0 472.002 472.002" style="enable-background:new 0 0 472.002 472.002;" xml:space="preserve">
<path style="fill:#F6F6E7;" d="M206.681,405.058l-2.68,58.944h256l-5.736-108.976c-1.382-26.23-17.877-49.267-42.264-59.024l-104-24
	c-6.032,2.024-11.929,4.429-17.656,7.2c-13.775,6.887-25.053,17.908-32.256,31.52L206.681,405.058z"/>
<g>
	<path style="fill:#394D5D;" d="M454.265,355.026c-0.34-6.492-1.62-12.9-3.8-19.024H244.297l-26.144,48h237.64L454.265,355.026z"/>
	<path style="fill:#394D5D;" d="M260.001,432.002h-54.544l-1.456,32h256l-1.688-32H324.001H260.001z"/>
</g>
<path style="fill:#F4D8C3;" d="M300.001,168.002v82.336c0.39,13.943,6.937,26.998,17.88,35.648
	c30.149,23.147,71.825,24.077,102.976,2.296l2.4-1.824c12.531-8.655,20.225-22.732,20.744-37.952v-80.504"/>
<path style="fill:#394D5D;" d="M300.001,232.002l17.688,8.848c9.412,4.703,19.79,7.152,30.312,7.152
	c4.999,0,9.667-2.497,12.44-6.656l7.12-10.688c2.773-4.159,7.441-6.656,12.44-6.656c4.999,0,9.667,2.497,12.44,6.656l7.12,10.688
	c2.773,4.159,7.441,6.656,12.44,6.656c10.244,0,20.068-4.069,27.312-11.312l4.688-4.688v-72h-144V232.002z"/>
<g>
	<path style="fill:#FFFFFF;" d="M332.001,192.002h16v16h-16V192.002z"/>
	<path style="fill:#FFFFFF;" d="M404.001,192.002h16v16h-16V192.002z"/>
</g>
<path style="fill:#BCA996;" d="M276.001,328.002l-30.92-111.312c-5.921-21.329-17.954-40.459-34.616-55.032l-6.4-5.6
	c-20.683-18.088-47.227-28.057-74.704-28.056h-2.568c-17.619,0.006-34.996,4.115-50.752,12l-9.312,4.648
	c-20.037,10.021-36.66,25.748-47.776,45.2c-9.796,17.145-14.95,36.55-14.952,56.296v5.392c0.8,29.378,5.527,58.516,14.056,86.64
	c6.506,19.513,18.192,36.892,33.808,50.28c20.735,17.774,47.145,27.544,74.456,27.544h37.68c8,0,96-24,96-24l24-8L276.001,328.002z"
	/>
<g>
	<path style="fill:#826346;" d="M108.001,200.002h16v144h-16V200.002z"/>
	<path style="fill:#826346;" d="M130.057,328.002h-19.104c-2.61-0.001-5.211-0.321-7.744-0.952l-29.152-7.288l3.888-15.52
		l29.128,7.28c1.269,0.318,2.572,0.48,3.88,0.48h19.104c8.837,0,16-7.163,16-16s-7.163-16-16-16h-28.112c-17.673,0-32-14.327-32-32
		s14.327-32,32-32h19.104c2.61,0.001,5.211,0.321,7.744,0.952l29.152,7.288l-3.888,15.52l-29.128-7.28
		c-1.269-0.318-2.572-0.48-3.88-0.48h-19.104c-8.837,0-16,7.163-16,16s7.163,16,16,16h28.112c17.673,0,32,14.327,32,32
		S147.73,328.002,130.057,328.002L130.057,328.002z"/>
</g>
<path style="fill:#2B472F;" d="M452.001,128.002l-9-34.192c-6.003-23.558-23.793-42.317-47-49.56v-9.512
	c0.195-12.804-6.579-24.703-17.688-31.072c-8.915-4.888-19.709-4.888-28.624,0c-11.109,6.369-17.883,18.268-17.688,31.072v18.736
	c-15.612,9.6-26.925,24.845-31.592,42.568l-8.408,31.96h-16v40h192v-40H452.001z"/>
<g>
	<path style="fill:#1B381F;" d="M308.001,128.002h16v40h-16V128.002z"/>
	<path style="fill:#1B381F;" d="M348.001,128.002h16v40h-16V128.002z"/>
	<path style="fill:#1B381F;" d="M388.001,128.002h16v40h-16V128.002z"/>
	<path style="fill:#1B381F;" d="M428.001,128.002h16v40h-16V128.002z"/>
	<path style="fill:#1B381F;" d="M364.001,0.002c5.001,0.009,9.921,1.269,14.312,3.664c11.109,6.369,17.883,18.268,17.688,31.072
		v13.264h-24c0.002-15.896-2.562-31.689-7.592-46.768L364.001,0.002z"/>
	<path style="fill:#1B381F;" d="M372.001,40.69c12.573-0.367,25.019,2.603,36.072,8.608c17.285,9.383,29.925,25.491,34.928,44.512
		l9,34.192h-40v-18.656c-0.001-13.918-4.12-27.524-11.84-39.104c-2.764-4.148-5.96-7.991-9.536-11.464L372.001,40.69z"/>
</g>
<path style="fill:#F4D8C3;" d="M324.001,472.002V357.258c0-8.489-3.372-16.63-9.376-22.632c-12.496-12.492-32.752-12.492-45.248,0
	c-6.004,6.002-9.376,14.143-9.376,22.632v114.744"/>
<g>
	<path style="fill:#BCA996;" d="M270.297,333.874l3.512,5.264L270.297,333.874z"/>
	<path style="fill:#BCA996;" d="M284.457,326.266l2.664,3.992L284.457,326.266z"/>
	<path style="fill:#BCA996;" d="M287.121,330.258l-2.664-4c-5.296,1.276-10.173,3.897-14.16,7.608l3.512,5.264
		c6.659,9.966,10.207,21.686,10.192,33.672v11.2c0,4.418,3.582,8,8,8s8-3.582,8-8v-11.2
		C300.013,357.659,295.53,342.853,287.121,330.258L287.121,330.258z"/>
</g>
<g>
</g>
<g>
</g>
<g>
</g>
<g>
</g>
<g>
</g>
<g>
</g>
<g>
</g>
<g>
</g>
<g>
</g>
<g>
</g>
<g>
</g>
<g>
</g>
<g>
</g>
<g>
</g>
<g>
</g>
</svg>
