<svg height="512pt" viewBox="-8 0 512 512" width="512pt" xmlns="http://www.w3.org/2000/svg"><path d="m482.199219 348.210938c8.929687-25.414063 13.800781-52.742188 13.800781-81.210938 0-135.3125-109.6875-245-245-245s-245 109.6875-245 245c0 28.425781 4.855469 55.710938 13.757812 81.097656zm0 0" fill="#3c2b8e"/><path d="m251 512c107.203125 0 198.308594-68.859375 231.539062-164.753906-1.6875-126.457032-104.703124-228.449219-231.558593-228.449219-126.816407 0-229.808594 101.933594-231.5625 228.332031 33.199219 95.957032 124.335937 164.871094 231.582031 164.871094zm0 0" fill="#2299f2"/><path d="m299.769531 409.5c11.828125-46-16.492187-41.332031-50.1875-83.40625-33.695312-42.074219-6.714843-88.0625-6.714843-88.0625l-1.921876-28.402344c-3.195312-9.945312-2.410156-16.984375-.0625-21.933594 4.121094-8.675781 3.382813-18.992187-1.785156-27.089843-13.390625-20.96875-2.746094-41.0625-2.59375-41.34375-120.089844 7.410156-215.402344 106.316406-217.085937 227.867187 33.199219 95.957032 124.335937 164.871094 231.582031 164.871094 20.207031 0 39.835938-2.449219 58.617188-7.0625-.003907-.003906-.007813-.007812-.011719-.011719-34.933594-31.652343-21.664063-49.425781-9.835938-95.425781zm0 0" fill="#1588e8"/><path d="m359.109375 145.554688 12.90625 37.421874s15.570313 25.011719 0 40.585938c-15.574219 15.574219-34.921875 3.777344-34.921875 14.160156 0 10.378906-38.699219 4.71875-38.699219 18.875 0 14.160156-34.921875 28.316406-18.875 44.359375 16.042969 16.046875 30.203125-20.761719 40.585938-10.382812 10.378906 10.382812 13.210937 42.476562 0 42.476562-13.214844 0-18.816407 19.816407-44.804688 10.378907-25.984375-9.4375-33.535156-34.921876-45.804687-22.652344-12.269532 12.273437-57.105469 24.542968-46.011719 67.957031 11.089844 43.417969 37.515625 39.640625 59.222656 39.640625 21.710938 0 17.933594 30.203125 17.933594 47.191406 0 8.402344 7.039063 23.375 15.355469 35.175782 11.457031-1.164063 22.671875-3.128907 33.609375-5.8125 4.4375-13.007813 9.230469-28.09375 18.046875-36.914063 15.101562-15.101563 30.535156-19.617187 23.925781-37.3125-3.5-9.378906 9.582031-27.339844-2.214844-39.136719s-27.371093-20.765625-20.765625-27.371094c6.609375-6.605468 48.609375 18.40625 62.292969 4.71875 13.6875-13.683593 20.765625 37.753907 33.980469 37.753907 13.210937 0 13.210937-34.921875 24.539062-34.921875 7.066406 0 15.960938-4.386719 23.71875-1.285156 3.523438-7.550782 6.671875-15.304688 9.425782-23.246094-1.183594-87.507813-50.894532-163.28125-123.445313-201.660156zm0 0" fill="#83d912"/><path d="m359.109375 145.554688 12.90625 37.421874s8.027344 12.894532 6.789063 25.933594c-.292969 3.066406-1.109376 6.136719-2.652344 9.050782-3.453125 15.289062-5.765625 46.027343 25.652344 61.058593 41.714843 19.960938 10.21875 76.105469 66.734374 90.402344 1.558594.125 3.09375.441406 4.589844 1.039063 3.519532-7.550782 6.671875-15.304688 9.421875-23.25-1.179687-87.503907-50.890625-163.277344-123.441406-201.65625zm0 0" fill="#abf222"/><path d="m299.769531 409.5c11.828125-46-16.492187-41.332031-50.1875-83.40625-7.890625-7.28125-13.261719-12.140625-20.085937-5.316406-12.269532 12.269531-57.105469 24.539062-46.011719 67.957031 11.089844 43.417969 37.515625 39.640625 59.226563 39.640625 21.707031 0 17.933593 30.203125 17.933593 47.191406 0 8.402344 7.035157 23.375 15.351563 35.171875 11.457031-1.160156 22.675781-3.125 33.609375-5.8125-34.933594-31.652343-21.664063-49.425781-9.835938-95.425781zm0 0" fill="#5bbf02"/><path d="m301.34375 124.304688c-16.214844-3.59375-33.066406-5.507813-50.363281-5.507813-15.257813 0-30.164063 1.492187-44.597657 4.308594-1.164062 8.140625-1.308593 16.546875 1.640626 24.480469 9.203124 24.773437 33.269531 29.023437 46.71875 29.023437 13.449218 0 18.40625 25.484375 35.394531 25.484375s7.078125-28.316406 15.574219-36.8125c8.492187-8.492188 10.617187-13.449219 0-24.066406-3.792969-3.792969-4.878907-8.761719-4.703126-13.578125.039063-1.125.164063-2.234375.335938-3.332031zm0 0" fill="#83d912"/><path d="m243.535156 175.636719c-.039062-5.253907-1.539062-10.488281-4.441406-15.027344-13.367188-20.941406-2.773438-41.007813-2.59375-41.347656-10.230469.636719-20.285156 1.925781-30.117188 3.839843-1.164062 8.144532-1.308593 16.550782 1.640626 24.484376 6.988281 18.808593 22.539062 25.78125 35.511718 28.050781zm0 0" fill="#5bbf02"/><path d="m237.59375 266.617188c-1.992188-3.882813-.460938-8.648438 3.425781-10.636719 13.71875-7.039063 13.992188-6.609375 15.507813-9 2.335937-3.683594 7.222656-4.777344 10.902344-2.441407 3.6875 2.339844 4.78125 7.21875 2.445312 10.90625-4.503906 7.101563-9.539062 8.386719-21.644531 14.59375-3.867188 1.984376-8.636719.476563-10.636719-3.421874zm0 0" fill="#83d912"/><path d="m237.886719 296.535156c-2.460938-3.601562-1.539063-8.519531 2.066406-10.980468l2.984375-2.042969c3.601562-2.460938 8.519531-1.539063 10.984375 2.066406 2.460937 3.601563 1.539063 8.519531-2.066406 10.980469l-2.984375 2.042968c-3.609375 2.46875-8.523438 1.53125-10.984375-2.066406zm0 0" fill="#83d912"/><path d="m162.484375 202.089844c-15.457031-15.453125 5.191406-28.078125-9.4375-42.707032-4.535156-4.535156-6.257813-10.160156-6.476563-15.761718-74.535156 37.714844-125.917968 114.527344-127.164062 203.476562 19.15625 55.382813 57.609375 101.753906 107.328125 131.074219-1.324219-27.90625 12.265625-53.929687-1.0625-67.257813-16.042969-16.042968-16.277344-31.851562-21.707031-37.28125-5.425782-5.425781-18.402344 8.023438-26.425782-9.4375-8.023437-17.460937 10.855469-28.316406 10.855469-28.316406 12.269531-3.304687 10.617188-19.582031 27.839844-36.808594 17.226563-17.226562 40.585937 0 55.6875 0s16.988281-16.046874 0-33.035156c-16.988281-16.988281 6.015625-48.488281-9.4375-63.945312zm0 0" fill="#5bbf02"/><path d="m143.8125 335.375-9.4375-4.023438c-4.015625-1.714843-5.882812-6.355468-4.171875-10.371093 1.710937-4.011719 6.351563-5.878907 10.367187-4.167969l9.4375 4.023438c4.015626 1.710937 5.882813 6.355468 4.171876 10.367187-1.703126 3.996094-6.332032 5.890625-10.367188 4.171875zm0 0" fill="#83d912"/><path d="m431.582031 308.800781c0 16.445313-13.332031 29.777344-29.777343 29.777344-16.445313 0-29.777344-13.332031-29.777344-29.777344 0-16.449219 13.332031-29.78125 29.777344-29.78125 16.445312 0 29.777343 13.332031 29.777343 29.78125zm0 0" fill="#f9b50b"/><path d="m412.339844 317.503906c-10.625 0-19.238282-8.613281-19.238282-19.242187 0-9.023438 6.21875-16.574219 14.601563-18.65625-1.90625-.382813-3.878906-.585938-5.898437-.585938-16.445313 0-29.777344 13.332031-29.777344 29.777344s13.332031 29.777344 29.777344 29.777344c16.445312 0 29.777343-13.332031 29.777343-29.777344 0-2.019531-.203125-3.988281-.585937-5.898437-2.078125 8.382812-9.628906 14.605468-18.65625 14.605468zm0 0" fill="#f79d0d"/><path d="m134.308594 263.007812c0 16.445313-13.332032 29.777344-29.777344 29.777344s-29.777344-13.332031-29.777344-29.777344c0-16.449218 13.332032-29.78125 29.777344-29.78125s29.777344 13.332032 29.777344 29.78125zm0 0" fill="#f97396"/><path d="m114.417969 273.007812c-10.984375 0-19.890625-8.902343-19.890625-19.890624 0-9.464844 6.617187-17.367188 15.472656-19.378907-1.773438-.332031-3.601562-.511719-5.46875-.511719-16.445312 0-29.777344 13.332032-29.777344 29.777344 0 16.445313 13.332032 29.777344 29.777344 29.777344s29.777344-13.332031 29.777344-29.777344c0-1.867187-.179688-3.695312-.511719-5.46875-2.011719 8.859375-9.914063 15.472656-19.378906 15.472656zm0 0" fill="#f7577a"/><path d="m359.066406 273.832031c-51.648437-44.003906-137.605468-46.5625-193.550781-14.003906-6.789063 3.953125-15.496094 1.652344-19.449219-5.136719-3.949218-6.792968-1.648437-15.5 5.140625-19.449218 66.503907-38.703126 165.519531-34.859376 226.308594 16.9375 5.976563 5.09375 6.695313 14.070312 1.601563 20.050781s-14.070313 6.699219-20.050782 1.601562zm0 0" fill="#d9f5ff"/><path d="m104.53125 0c-87.246094 0-135.957031 100.707031-81.796875 169.105469l64.0625 80.90625c9.058594 11.4375 26.410156 11.4375 35.464844 0l64.066406-80.90625c54.160156-68.398438 5.449219-169.105469-81.796875-169.105469zm0 0" fill="#f7577a"/><path d="m143.492188 163.328125c.144531-2.621094-1.386719-5.082031-3.835938-6.039063-6.460938-2.527343-7.816406-7.859374-7.875-11.699218-.039062-2.675782-1.816406-5.003906-4.367188-5.804688-46.628906-14.59375-46.492187-56-44.957031-70.332031.277344-2.601563-1.132812-5.085937-3.492187-6.226563-5.449219-2.640624-6.40625-8.136718-6.300782-12.113281.070313-2.6875-1.640624-5.070312-4.167968-5.988281-22.4375-8.15625-13.628906-32.414062-13.449219-32.898438-53.730469 28.867188-75.039063 102.921876-32.3125 156.878907l64.0625 80.90625c9.058594 11.4375 26.410156 11.4375 35.464844 0l47.363281-59.8125c-24.429688-1.34375-26.613281-18.292969-26.132812-26.871094zm0 0" fill="#d93a59"/><path d="m104.53125 171.539062c-36.667969 0-66.5-29.828124-66.5-66.5 0-36.667968 29.832031-66.5 66.5-66.5s66.5 29.832032 66.5 66.5c0 36.671876-29.832031 66.5-66.5 66.5zm0-111.925781c-25.046875 0-45.425781 20.378907-45.425781 45.425781 0 25.050782 20.378906 45.429688 45.425781 45.429688s45.425781-20.378906 45.425781-45.429688c0-25.046874-20.375-45.425781-45.425781-45.425781zm0 0" fill="#d93a59"/><path d="m139.65625 157.289062c-6.460938-2.527343-7.816406-7.859374-7.875-11.699218-.019531-1.261719-.433594-2.4375-1.121094-3.421875-7.398437 5.222656-16.40625 8.300781-26.128906 8.300781-25.046875 0-45.425781-20.378906-45.425781-45.429688 0-16.726562 9.09375-31.363281 22.59375-39.25-.613281-1.085937-1.554688-1.992187-2.730469-2.5625-5.453125-2.640624-6.410156-8.140624-6.304688-12.113281.039063-1.382812-.40625-2.679687-1.179687-3.742187-19.96875 11.488281-33.453125 33.027344-33.453125 57.667968 0 36.667969 29.832031 66.5 66.5 66.5 14.101562 0 27.183594-4.425781 37.957031-11.941406-.671875-1.019531-1.640625-1.84375-2.832031-2.308594zm0 0" fill="#ba1c37"/><path d="m231.441406 223.527344c0-6.328125 3.945313-11.722656 9.503906-13.898438-32.082031 1.671875-63.449218 10.3125-89.738281 25.613282-6.789062 3.949218-9.089843 12.65625-5.136719 19.449218 3.949219 6.789063 12.65625 9.089844 19.445313 5.136719 22.359375-13.011719 49.511719-20.40625 77.351563-21.796875-6.550782-1.582031-11.425782-7.464844-11.425782-14.503906zm0 0" fill="#abe4fe"/><path d="m125.671875 410.914062c-16.042969-16.046874-16.277344-31.855468-21.707031-37.28125-5.425782-5.429687-18.402344 8.023438-26.425782-9.4375-2.855468-6.214843-2.296874-11.585937-.402343-15.9375-2.585938-6.28125-8.394531-13.957031-20.527344-22.164062-25.300781-17.113281-21.5-52.941406-19.394531-64.953125-11.085938 26.511719-17.382813 55.523437-17.808594 85.957031 19.152344 55.382813 57.609375 101.753906 107.328125 131.074219-1.324219-27.90625 12.265625-53.929687-1.0625-67.257813zm0 0" fill="#58aa02"/></svg>