<?xml version="1.0" encoding="utf-8"?>
<!-- Generator: Adobe Illustrator 19.0.0, SVG Export Plug-In . SVG Version: 6.00 Build 0)  -->
<svg version="1.1" id="Calque_1" xmlns="http://www.w3.org/2000/svg" xmlns:xlink="http://www.w3.org/1999/xlink" x="0px" y="0px"
	 viewBox="0 0 1920 800" style="enable-background:new 0 0 1920 800;" xml:space="preserve">
<style type="text/css">
	.st0{opacity:0.3;}
	.st1{fill:#83D0F5;}
	.st2{opacity:0.4;}
	.st3{opacity:0.5;}
	.st4{fill:#DDDDDD;}
</style>
<g id="XMLID_1_">
	<g id="XMLID_380_" class="st0">
		<g id="XMLID_381_">
			<g id="XMLID_408_">
				<g id="XMLID_423_">
					<polygon id="XMLID_144_" class="st1" points="1075.2,327.9 1071.8,324.5 1115.3,281 1218.5,281 1459.5,40 1459.5,-98.7 
						1588.2,-227.4 1588.2,-321.3 1767.5,-500.6 1770.8,-497.2 1592.9,-319.3 1592.9,-225.4 1464.3,-96.8 1464.3,42 1220.4,285.8 
						1117.2,285.8 					"/>
				</g>
				<g id="XMLID_421_">
					<polygon id="XMLID_143_" class="st1" points="1209.7,330.3 1206.3,327 1482.2,51.1 1482.2,-96.2 1615.4,-229.4 1615.4,-310.2 
						1721,-415.8 1724.4,-412.4 1620.2,-308.2 1620.2,-227.4 1487,-94.2 1487,53.1 					"/>
				</g>
				<g id="XMLID_419_">
					<polygon id="XMLID_142_" class="st1" points="1207.2,420.5 1203.9,417.1 1558.5,62.4 1558.5,-143.4 1918.9,-503.8 
						1922.3,-500.5 1563.3,-141.5 1563.3,64.4 					"/>
				</g>
				<g id="XMLID_417_">
					<polygon id="XMLID_141_" class="st1" points="1091.8,79 1088.4,75.7 1197.7,-33.6 1370.7,-33.6 1729.7,-392.7 1733.1,-389.3 
						1372.7,-28.9 1199.7,-28.8 					"/>
				</g>
				<g id="XMLID_415_">
					<polygon id="XMLID_140_" class="st1" points="1309.9,-82.2 1306.5,-85.6 1418,-197 1513.4,-197 1553.8,-237.5 1553.8,-307.1 
						1706.9,-460.2 1710.3,-456.8 1558.6,-305.2 1558.6,-235.5 1515.3,-192.2 1420,-192.2 					"/>
				</g>
				<g id="XMLID_413_">
					<polygon id="XMLID_139_" class="st1" points="1088,222.5 1084.6,219.1 1157.2,146.5 1157.2,69.8 1259.6,-32.6 1263,-29.2 
						1162,71.7 1162,148.4 					"/>
				</g>
				<g id="XMLID_411_">
					<polygon id="XMLID_138_" class="st1" points="1160.9,233.5 1157.5,230.1 1366.6,21 1366.6,-102.2 1459.9,-195.5 1463.3,-192.1 
						1371.4,-100.2 1371.4,22.9 					"/>
				</g>
				<g id="XMLID_409_">
					<polygon id="XMLID_137_" class="st1" points="1237,198.1 1233.6,194.7 1393.5,34.9 1393.6,-93.9 1496,-196.3 1499.4,-192.9 
						1398.4,-92 1398.3,36.8 					"/>
				</g>
			</g>
			<g id="XMLID_406_">
				<path id="XMLID_136_" class="st1" d="M1144,247.4c4.8,4.8,12.6,4.8,17.4,0c4.8-4.8,4.8-12.6,0-17.4c-4.8-4.8-12.6-4.8-17.4,0
					C1139.1,234.8,1139.2,242.6,1144,247.4z"/>
			</g>
			<g id="XMLID_402_">
				<path id="XMLID_403_" class="st1" d="M1228.9,218.3L1228.9,218.3c-3.9,0-7.6-1.5-10.4-4.3c-5.7-5.7-5.7-15.1,0-20.8
					c5.5-5.5,15.2-5.6,20.8,0c2.8,2.8,4.3,6.5,4.3,10.4c0,3.9-1.5,7.6-4.3,10.4C1236.5,216.7,1232.8,218.3,1228.9,218.3z
					 M1228.9,193.7c-2.6,0-5.1,1-7,2.9c-3.9,3.9-3.9,10.1,0,14c3.7,3.7,10.2,3.7,14,0c1.9-1.9,2.9-4.4,2.9-7c0-2.6-1-5.1-2.9-7
					C1234,194.7,1231.6,193.7,1228.9,193.7z"/>
			</g>
			<g id="XMLID_398_">
				<path id="XMLID_399_" class="st1" d="M1301.4-62.4L1301.4-62.4c-3.9,0-7.6-1.5-10.4-4.3c-5.7-5.7-5.7-15,0-20.8
					c5.5-5.5,15.2-5.6,20.8,0c2.8,2.8,4.3,6.5,4.3,10.4c0,3.9-1.5,7.6-4.3,10.4C1309-63.9,1305.3-62.4,1301.4-62.4z M1301.4-87
					c-2.7,0-5.1,1-7,2.9c-3.9,3.9-3.9,10.1,0,14c1.9,1.9,4.3,2.9,7,2.9l0,0c2.6,0,5.1-1,7-2.9c1.9-1.9,2.9-4.4,2.9-7
					c0-2.6-1-5.1-2.9-7C1306.5-85.9,1304-87,1301.4-87z"/>
			</g>
			<g id="XMLID_396_">
				<path id="XMLID_131_" class="st1" d="M1192.1,344.6c4.8,4.8,12.6,4.8,17.4,0c4.8-4.8,4.8-12.6,0-17.4c-4.8-4.8-12.6-4.8-17.4,0
					C1187.3,332,1187.3,339.7,1192.1,344.6z"/>
			</g>
			<g id="XMLID_392_">
				<path id="XMLID_393_" class="st1" d="M1067,348.3c-3.9,0-7.6-1.5-10.4-4.3c-2.8-2.8-4.3-6.5-4.3-10.4c0-3.9,1.5-7.6,4.3-10.4
					c5.6-5.5,15.2-5.5,20.8,0c5.7,5.7,5.7,15,0,20.8C1074.6,346.8,1070.9,348.3,1067,348.3z M1067,323.7c-2.6,0-5.1,1-7,2.9
					c-1.9,1.9-2.9,4.4-2.9,7c0,2.6,1,5.1,2.9,7c3.7,3.8,10.3,3.8,14,0c3.9-3.9,3.9-10.1,0-14C1072.1,324.7,1069.6,323.7,1067,323.7z
					"/>
			</g>
			<g id="XMLID_388_">
				<path id="XMLID_389_" class="st1" d="M1199.1,441.2c-3.9,0-7.6-1.5-10.4-4.3c-2.8-2.8-4.3-6.5-4.3-10.4c0-3.9,1.5-7.6,4.3-10.4
					c5.5-5.5,15.2-5.5,20.8,0c2.8,2.8,4.3,6.5,4.3,10.4c0,3.9-1.5,7.6-4.3,10.4C1206.7,439.7,1203,441.2,1199.1,441.2z
					 M1199.1,416.7c-2.6,0-5.1,1-7,2.9c-1.9,1.9-2.9,4.4-2.9,7c0,2.6,1,5.1,2.9,7c3.7,3.7,10.2,3.8,14,0c1.9-1.9,2.9-4.4,2.9-7
					c0-2.6-1-5.1-2.9-7C1204.2,417.7,1201.7,416.7,1199.1,416.7z"/>
			</g>
			<g id="XMLID_384_">
				<path id="XMLID_385_" class="st1" d="M1079.5,242.6c-3.9,0-7.6-1.5-10.4-4.3c-2.8-2.8-4.3-6.5-4.3-10.4c0-3.9,1.5-7.6,4.3-10.4
					c5.5-5.5,15.2-5.6,20.8,0c5.7,5.7,5.7,15,0,20.8C1087.1,241,1083.4,242.6,1079.5,242.6z M1079.5,218c-2.6,0-5.1,1-7,2.9
					c-1.9,1.9-2.9,4.4-2.9,7c0,2.7,1,5.1,2.9,7c3.7,3.7,10.2,3.7,14,0c3.9-3.9,3.9-10.1,0-14C1084.6,219,1082.1,218,1079.5,218z"/>
			</g>
			<g id="XMLID_382_">
				<path id="XMLID_124_" class="st1" d="M1074.2,93.7c4.8,4.8,12.6,4.8,17.4,0c4.8-4.8,4.8-12.6,0-17.4c-4.8-4.8-12.6-4.8-17.4,0
					C1069.4,81.1,1069.4,88.8,1074.2,93.7z"/>
			</g>
		</g>
	</g>
	<g id="XMLID_294_" class="st2">
		<g id="XMLID_295_">
			<g id="XMLID_322_">
				<g id="XMLID_337_">
					<polygon id="XMLID_102_" class="st1" points="1416.7,490.8 1420.1,494.2 1464.1,450.2 1464.1,347.1 1705.1,106 1843.9,106 
						1972.5,-22.6 2066.4,-22.6 2245.7,-201.9 2242.3,-205.3 2064.4,-27.4 1970.5,-27.4 1841.9,101.3 1703.1,101.3 1459.3,345.1 
						1459.3,448.3 					"/>
				</g>
				<g id="XMLID_335_">
					<polygon id="XMLID_101_" class="st1" points="1556.1,214.5 1559.5,217.8 1694,83.3 1841.3,83.3 1974.5,-49.9 2055.3,-49.9 
						2160.9,-155.5 2157.5,-158.9 2053.3,-54.7 1972.6,-54.7 1839.4,78.5 1692,78.6 					"/>
				</g>
				<g id="XMLID_333_">
					<polygon id="XMLID_100_" class="st1" points="1354.9,349.3 1358.3,352.7 1704,7 1888.5,7 2249,-353.4 2245.6,-356.8 
						1886.6,2.2 1702,2.2 					"/>
				</g>
				<g id="XMLID_331_">
					<polygon id="XMLID_99_" class="st1" points="1666.1,473.7 1669.4,477.1 1778.7,367.8 1778.8,194.8 2137.8,-164.2 
						2134.4,-167.5 1774,192.9 1774,365.8 					"/>
				</g>
				<g id="XMLID_329_">
					<polygon id="XMLID_98_" class="st1" points="1827.3,255.6 1830.7,259 1942.1,147.5 1942.1,52.2 1982.6,11.7 2052.2,11.7 
						2205.3,-141.4 2201.9,-144.8 2050.3,6.9 1980.6,6.9 1937.3,50.2 1937.3,145.5 					"/>
				</g>
				<g id="XMLID_327_">
					<polygon id="XMLID_97_" class="st1" points="1540.2,460 1543.6,463.4 1598.6,408.3 1675.3,408.3 1777.7,305.9 1774.3,302.6 
						1673.4,403.5 1596.7,403.5 					"/>
				</g>
				<g id="XMLID_325_">
					<polygon id="XMLID_96_" class="st1" points="1520.6,395.7 1524,399 1724.2,198.9 1847.3,198.9 1940.6,105.6 1937.2,102.3 
						1845.3,194.1 1722.2,194.1 					"/>
				</g>
				<g id="XMLID_323_">
					<polygon id="XMLID_95_" class="st1" points="1547,328.5 1550.4,331.9 1710.3,172 1839.1,171.9 1941.4,69.5 1938.1,66.1 
						1837.1,167.1 1708.3,167.2 					"/>
				</g>
			</g>
			<g id="XMLID_320_">
				<path id="XMLID_94_" class="st1" d="M1506.7,412.6c-4.8-4.8-4.8-12.6,0-17.4c4.8-4.8,12.6-4.8,17.4,0c4.8,4.8,4.8,12.6,0,17.4
					C1519.3,417.4,1511.5,417.4,1506.7,412.6z"/>
			</g>
			<g id="XMLID_316_">
				<path id="XMLID_317_" class="st1" d="M1531.2,326.2c2.8-2.8,6.5-4.3,10.4-4.3c3.9,0,7.6,1.5,10.4,4.3c5.6,5.5,5.5,15.2,0,20.8
					c-5.7,5.7-15,5.7-20.8,0c-2.8-2.8-4.3-6.4-4.3-10.4l0,0C1526.8,332.7,1528.4,329,1531.2,326.2z M1548.5,329.6
					c-1.9-1.9-4.4-2.9-7-2.9c-2.6,0-5.1,1-7,2.9c-3.7,3.7-3.7,10.3,0,14c3.9,3.9,10.1,3.9,14,0c1.9-1.9,2.9-4.4,2.9-7
					C1551.4,334,1550.4,331.5,1548.5,329.6z"/>
			</g>
			<g id="XMLID_312_">
				<path id="XMLID_313_" class="st1" d="M1811.8,253.8c2.8-2.8,6.5-4.3,10.4-4.3c3.9,0,7.6,1.5,10.4,4.3c5.6,5.5,5.5,15.2,0,20.8
					c-5.7,5.7-15,5.7-20.8,0c-2.8-2.8-4.3-6.4-4.3-10.4l0,0C1807.5,260.2,1809,256.5,1811.8,253.8z M1829.2,257.1
					c-1.9-1.9-4.3-2.9-7-2.9c-2.6,0-5.1,1-7,2.9c-1.9,1.9-2.9,4.4-2.9,7l0,0c0,2.6,1,5.1,2.9,7c3.9,3.9,10.2,3.9,14,0
					c1.9-1.9,2.9-4.4,2.9-7S1831.1,259,1829.2,257.1z"/>
			</g>
			<g id="XMLID_310_">
				<path id="XMLID_89_" class="st1" d="M1541.9,232.1c-4.8-4.8-4.8-12.6,0-17.4c4.8-4.8,12.6-4.8,17.4,0c4.8,4.8,4.8,12.6,0,17.4
					C1554.5,236.9,1546.7,236.9,1541.9,232.1z"/>
			</g>
			<g id="XMLID_306_">
				<path id="XMLID_307_" class="st1" d="M1400.6,488.7c5.7-5.7,15-5.7,20.8,0c5.6,5.6,5.6,15.2,0,20.8c-2.8,2.8-6.5,4.3-10.4,4.3
					c-3.9,0-7.6-1.5-10.4-4.3c-2.8-2.8-4.3-6.5-4.3-10.4C1396.3,495.1,1397.8,491.4,1400.6,488.7z M1418,492.1
					c-3.9-3.9-10.1-3.9-14,0c-3.7,3.8-3.7,10.3,0,14c1.9,1.9,4.4,2.9,7,2.9s5.1-1,7-2.9c1.9-1.9,2.9-4.4,2.9-7
					C1420.9,496.4,1419.8,493.9,1418,492.1z"/>
			</g>
			<g id="XMLID_302_">
				<path id="XMLID_303_" class="st1" d="M1338.4,347.1c2.8-2.8,6.5-4.3,10.4-4.3c3.9,0,7.6,1.5,10.4,4.3c5.6,5.5,5.6,15.2,0,20.8
					c-2.8,2.8-6.5,4.3-10.4,4.3c-3.9,0-7.6-1.5-10.4-4.3c-2.8-2.8-4.3-6.5-4.3-10.4C1334.1,353.5,1335.7,349.8,1338.4,347.1z
					 M1355.8,350.4c-1.9-1.9-4.4-2.9-7-2.9c-2.6,0-5.1,1-7,2.9c-3.8,3.7-3.7,10.2,0,14c1.9,1.9,4.4,2.9,7,2.9c2.6,0,5.1-1,7-2.9
					c1.9-1.9,2.9-4.4,2.9-7C1358.7,354.8,1357.7,352.3,1355.8,350.4z"/>
			</g>
			<g id="XMLID_298_">
				<path id="XMLID_299_" class="st1" d="M1524.4,458.1c5.7-5.7,15-5.7,20.8,0c5.6,5.6,5.6,15.2,0,20.8c-2.8,2.8-6.5,4.3-10.4,4.3
					c-3.9,0-7.6-1.5-10.4-4.3c-2.8-2.8-4.3-6.5-4.3-10.4C1520.1,464.6,1521.6,460.9,1524.4,458.1z M1541.8,461.5
					c-3.9-3.8-10.1-3.8-14,0c-3.7,3.7-3.7,10.2,0,14c1.9,1.9,4.4,2.9,7,2.9c2.6,0,5.1-1,7-2.9c1.9-1.9,2.9-4.4,2.9-7
					C1544.7,465.8,1543.6,463.3,1541.8,461.5z"/>
			</g>
			<g id="XMLID_296_">
				<path id="XMLID_82_" class="st1" d="M1651.5,491.3c-4.8-4.8-4.8-12.6,0-17.4c4.8-4.8,12.6-4.8,17.4,0c4.8,4.8,4.8,12.6,0,17.4
					C1664.1,496.1,1656.3,496.1,1651.5,491.3z"/>
			</g>
		</g>
	</g>
</g>
<g id="XMLID_2_">
	<g id="XMLID_249_" class="st3">
		<g id="XMLID_250_">
			<g id="XMLID_277_">
				<g id="XMLID_292_">
					<polygon id="XMLID_81_" class="st4" points="748.9,426.7 745.5,423.3 652.5,516.3 652.5,619.4 411.5,860.5 272.7,860.5 
						144.1,989.2 50.2,989.2 -129.1,1168.5 -125.7,1171.8 52.2,993.9 146,993.9 274.7,865.3 413.5,865.3 657.3,621.4 657.3,518.2 
											"/>
				</g>
				<g id="XMLID_290_">
					<polygon id="XMLID_80_" class="st4" points="560.5,752 557.1,748.7 422.6,883.2 275.2,883.2 142,1016.4 61.3,1016.4 
						-44.3,1122 -41,1125.4 63.3,1021.2 144,1021.2 277.2,888 424.6,888 					"/>
				</g>
				<g id="XMLID_288_">
					<polygon id="XMLID_79_" class="st4" points="761.8,638.4 758.4,635 433.9,959.5 228,959.5 -132.4,1319.9 -129,1323.3 
						230,964.3 435.9,964.3 					"/>
				</g>
				<g id="XMLID_286_">
					<polygon id="XMLID_78_" class="st4" points="450.5,492.8 447.1,489.4 337.8,598.7 337.8,771.7 -21.2,1130.7 -17.8,1134.1 
						342.6,773.6 342.6,600.7 					"/>
				</g>
				<g id="XMLID_284_">
					<polygon id="XMLID_77_" class="st4" points="289.3,710.9 285.9,707.5 174.4,819 174.4,914.3 134,954.8 64.3,954.8 
						-88.7,1107.9 -85.4,1111.3 66.3,959.6 135.9,959.6 179.2,916.3 179.2,821 					"/>
				</g>
				<g id="XMLID_282_">
					<polygon id="XMLID_76_" class="st4" points="593.9,488.9 590.6,485.6 517.9,558.2 441.2,558.2 338.9,660.6 342.3,664 
						443.2,563 519.9,563 					"/>
				</g>
				<g id="XMLID_280_">
					<polygon id="XMLID_75_" class="st4" points="604.9,561.8 601.6,558.5 392.4,767.6 269.3,767.6 176,860.9 179.4,864.3 
						271.3,772.4 394.4,772.4 					"/>
				</g>
				<g id="XMLID_278_">
					<polygon id="XMLID_74_" class="st4" points="569.6,638 566.2,634.6 406.3,794.5 277.5,794.6 175.1,897 178.5,900.4 
						279.5,799.4 408.3,799.3 					"/>
				</g>
			</g>
			<g id="XMLID_275_">
				<path id="XMLID_73_" class="st4" d="M618.9,545c4.8,4.8,4.8,12.6,0,17.4c-4.8,4.8-12.6,4.8-17.4,0c-4.8-4.8-4.8-12.6,0-17.4
					C606.3,540.1,614.1,540.1,618.9,545z"/>
			</g>
			<g id="XMLID_271_">
				<path id="XMLID_272_" class="st4" d="M585.4,640.3c-2.8,2.8-6.5,4.3-10.4,4.3c-3.9,0-7.6-1.5-10.4-4.3c-5.6-5.5-5.5-15.2,0-20.8
					c5.7-5.7,15-5.7,20.8,0c2.8,2.8,4.3,6.4,4.3,10.4l0,0C589.7,633.8,588.2,637.5,585.4,640.3z M568,636.9c1.9,1.9,4.4,2.9,7,2.9
					c2.6,0,5.1-1,7-2.9c3.7-3.7,3.7-10.3,0-14c-3.9-3.9-10.1-3.9-14,0c-1.9,1.9-2.9,4.4-2.9,7S566.2,635,568,636.9z"/>
			</g>
			<g id="XMLID_267_">
				<path id="XMLID_268_" class="st4" d="M304.8,712.7c-2.8,2.8-6.5,4.3-10.4,4.3c-3.9,0-7.6-1.5-10.4-4.3c-5.6-5.5-5.5-15.2,0-20.8
					c5.7-5.7,15-5.7,20.8,0c2.8,2.8,4.3,6.4,4.3,10.4l0,0C309.1,706.3,307.5,710,304.8,712.7z M287.4,709.4c1.9,1.9,4.4,2.9,7,2.9
					c2.6,0,5.1-1,7-2.9c1.9-1.9,2.9-4.4,2.9-7l0,0c0-2.6-1-5.1-2.9-7c-3.9-3.9-10.2-3.9-14,0c-1.9,1.9-2.9,4.4-2.9,7
					C284.5,705,285.5,707.5,287.4,709.4z"/>
			</g>
			<g id="XMLID_265_">
				<path id="XMLID_68_" class="st4" d="M574.7,734.4c4.8,4.8,4.8,12.6,0,17.4c-4.8,4.8-12.6,4.8-17.4,0c-4.8-4.8-4.8-12.6,0-17.4
					C562.1,729.6,569.9,729.6,574.7,734.4z"/>
			</g>
			<g id="XMLID_261_">
				<path id="XMLID_262_" class="st4" d="M765,428.8c-5.7,5.7-15,5.7-20.8,0c-5.6-5.5-5.6-15.2,0-20.8c2.8-2.8,6.5-4.3,10.4-4.3
					c3.9,0,7.6,1.5,10.4,4.3c2.8,2.8,4.3,6.5,4.3,10.4C769.3,422.4,767.8,426.1,765,428.8z M747.6,425.5c3.9,3.9,10.1,3.9,14,0
					c3.7-3.8,3.7-10.3,0-14c-1.9-1.9-4.4-2.9-7-2.9c-2.6,0-5.1,1-7,2.9c-1.9,1.9-2.9,4.4-2.9,7C744.7,421.1,745.7,423.6,747.6,425.5
					z"/>
			</g>
			<g id="XMLID_257_">
				<path id="XMLID_258_" class="st4" d="M778.3,640.6c-2.8,2.8-6.5,4.3-10.4,4.3c-3.9,0-7.6-1.5-10.4-4.3c-5.5-5.5-5.5-15.2,0-20.8
					c2.8-2.8,6.5-4.3,10.4-4.3c3.9,0,7.6,1.5,10.4,4.3c2.8,2.8,4.3,6.5,4.3,10.4C782.6,634.1,781.1,637.8,778.3,640.6z M760.9,637.2
					c1.9,1.9,4.4,2.9,7,2.9c2.6,0,5.1-1,7-2.9c3.7-3.8,3.7-10.2,0-14c-1.9-1.9-4.4-2.9-7-2.9c-2.6,0-5.1,1-7,2.9
					c-1.9,1.9-2.9,4.4-2.9,7C758,632.9,759,635.3,760.9,637.2z"/>
			</g>
			<g id="XMLID_253_">
				<path id="XMLID_254_" class="st4" d="M609.8,490.8c-5.7,5.7-15,5.7-20.8,0c-5.6-5.6-5.6-15.2,0-20.8c2.8-2.8,6.5-4.3,10.4-4.3
					c3.9,0,7.6,1.5,10.4,4.3c2.8,2.8,4.3,6.5,4.3,10.4C614,484.4,612.5,488.1,609.8,490.8z M592.4,487.5c3.9,3.9,10.1,3.9,14,0
					c3.7-3.7,3.7-10.2,0-14c-1.9-1.9-4.4-2.9-7-2.9c-2.6,0-5.1,1-7,2.9c-1.9,1.9-2.9,4.4-2.9,7C589.5,483.1,590.5,485.6,592.4,487.5
					z"/>
			</g>
			<g id="XMLID_251_">
				<path id="XMLID_61_" class="st4" d="M465.1,475.2c4.8,4.8,4.8,12.6,0,17.4c-4.8,4.8-12.6,4.8-17.4,0c-4.8-4.8-4.8-12.6,0-17.4
					C452.5,470.4,460.3,470.4,465.1,475.2z"/>
			</g>
		</g>
	</g>
	<g id="XMLID_204_" class="st3">
		<g id="XMLID_205_">
			<g id="XMLID_232_">
				<g id="XMLID_247_">
					<polygon id="XMLID_60_" class="st4" points="202,513.8 205.3,517.2 112.3,610.2 9.2,610.2 -231.9,851.2 -231.9,990 
						-360.5,1118.6 -360.5,1212.5 -539.8,1391.8 -543.2,1388.4 -365.3,1210.5 -365.3,1116.6 -236.6,988 -236.6,849.2 7.2,605.4 
						110.4,605.4 					"/>
				</g>
				<g id="XMLID_245_">
					<polygon id="XMLID_59_" class="st4" points="-123.4,702.2 -120.1,705.6 -254.6,840.1 -254.6,987.4 -387.8,1120.6 
						-387.8,1201.4 -493.4,1307 -496.8,1303.6 -392.6,1199.4 -392.6,1118.7 -259.4,985.5 -259.3,838.1 					"/>
				</g>
				<g id="XMLID_243_">
					<polygon id="XMLID_58_" class="st4" points="-9.7,500.9 -6.4,504.3 -330.9,828.8 -330.9,1034.6 -691.3,1395.1 -694.7,1391.7 
						-335.7,1032.7 -335.7,826.8 					"/>
				</g>
				<g id="XMLID_241_">
					<polygon id="XMLID_57_" class="st4" points="135.8,812.2 139.2,815.5 29.9,924.8 -143,924.8 -502.1,1283.9 -505.4,1280.5 
						-145,920.1 27.9,920.1 					"/>
				</g>
				<g id="XMLID_239_">
					<polygon id="XMLID_56_" class="st4" points="-82.3,973.4 -78.9,976.8 -190.4,1088.2 -285.7,1088.2 -326.2,1128.7 
						-326.2,1198.3 -479.3,1351.4 -482.7,1348 -331,1196.4 -331,1126.7 -287.7,1083.4 -192.4,1083.4 					"/>
				</g>
				<g id="XMLID_237_">
					<polygon id="XMLID_55_" class="st4" points="139.7,668.7 143,672.1 70.4,744.7 70.4,821.4 -32,923.8 -35.3,920.4 65.6,819.5 
						65.6,742.8 					"/>
				</g>
				<g id="XMLID_235_">
					<polygon id="XMLID_54_" class="st4" points="66.8,657.7 70.1,661.1 -139,870.2 -139,993.4 -232.3,1086.7 -235.6,1083.3 
						-143.8,991.4 -143.8,868.3 					"/>
				</g>
				<g id="XMLID_233_">
					<polygon id="XMLID_53_" class="st4" points="-9.4,693.1 -6,696.5 -165.9,856.4 -166,985.2 -268.4,1087.5 -271.8,1084.1 
						-170.8,983.2 -170.7,854.4 					"/>
				</g>
			</g>
			<g id="XMLID_230_">
				<path id="XMLID_52_" class="st4" d="M83.7,643.8c-4.8-4.8-12.6-4.8-17.4,0c-4.8,4.8-4.8,12.6,0,17.4c4.8,4.8,12.6,4.8,17.4,0
					C88.5,656.4,88.5,648.6,83.7,643.8z"/>
			</g>
			<g id="XMLID_226_">
				<path id="XMLID_227_" class="st4" d="M-1.3,672.9L-1.3,672.9c3.9,0,7.6,1.5,10.4,4.3c5.7,5.7,5.7,15,0,20.8
					c-5.5,5.5-15.2,5.6-20.8,0c-2.8-2.8-4.3-6.5-4.3-10.4c0-3.9,1.5-7.6,4.3-10.4C-8.9,674.5-5.2,672.9-1.3,672.9z M-1.3,697.5
					c2.7,0,5.1-1,7-2.9c3.9-3.9,3.9-10.1,0-14c-3.7-3.7-10.2-3.7-14,0c-1.9,1.9-2.9,4.4-2.9,7c0,2.7,1,5.1,2.9,7
					C-6.4,696.5-3.9,697.5-1.3,697.5z"/>
			</g>
			<g id="XMLID_222_">
				<path id="XMLID_223_" class="st4" d="M-73.7,953.6L-73.7,953.6c3.9,0,7.6,1.5,10.4,4.3c5.7,5.7,5.7,15,0,20.8
					c-5.5,5.5-15.2,5.6-20.8,0c-2.8-2.8-4.3-6.5-4.3-10.4c0-3.9,1.5-7.6,4.3-10.4C-81.4,955.1-77.7,953.6-73.7,953.6z M-73.8,978.2
					c2.7,0,5.1-1,7-2.9c3.9-3.9,3.9-10.1,0-14c-1.9-1.9-4.3-2.9-7-2.9l0,0c-2.6,0-5.1,1-7,2.9c-1.9,1.9-2.9,4.4-2.9,7
					c0,2.6,1,5.1,2.9,7C-78.9,977.2-76.4,978.2-73.8,978.2z"/>
			</g>
			<g id="XMLID_220_">
				<path id="XMLID_43_" class="st4" d="M-105.8,688c-4.8-4.8-12.6-4.8-17.4,0c-4.8,4.8-4.8,12.6,0,17.4c4.8,4.8,12.6,4.8,17.4,0
					C-101,700.6-101,692.8-105.8,688z"/>
			</g>
			<g id="XMLID_216_">
				<path id="XMLID_217_" class="st4" d="M210.2,493.4c3.9,0,7.6,1.5,10.4,4.3c2.8,2.8,4.3,6.5,4.3,10.4c0,3.9-1.5,7.6-4.3,10.4
					c-5.6,5.5-15.2,5.5-20.8,0c-5.7-5.7-5.7-15,0-20.8C202.5,494.9,206.2,493.4,210.2,493.4z M210.2,518c2.7,0,5.1-1,7-2.9
					c1.9-1.9,2.9-4.4,2.9-7c0-2.6-1-5.1-2.9-7c-3.7-3.7-10.2-3.8-14,0c-3.9,3.9-3.9,10.1,0,14C205,516.9,207.5,518,210.2,518z"/>
			</g>
			<g id="XMLID_212_">
				<path id="XMLID_213_" class="st4" d="M-1.6,480.1c3.9,0,7.6,1.5,10.4,4.3c2.8,2.8,4.3,6.5,4.3,10.4c0,3.9-1.5,7.6-4.3,10.4
					c-5.5,5.5-15.2,5.5-20.8,0c-2.8-2.8-4.3-6.5-4.3-10.4c0-3.9,1.5-7.6,4.3-10.4C-9.2,481.6-5.5,480.1-1.6,480.1z M-1.6,504.7
					c2.6,0,5.1-1,7-2.9c1.9-1.9,2.9-4.4,2.9-7s-1-5.1-2.9-7c-3.7-3.7-10.3-3.8-14,0c-1.9,1.9-2.9,4.4-2.9,7s1,5.1,2.9,7
					C-6.7,503.6-4.2,504.7-1.6,504.7z"/>
			</g>
			<g id="XMLID_208_">
				<path id="XMLID_209_" class="st4" d="M148.1,648.6c3.9,0,7.6,1.5,10.4,4.3c2.8,2.8,4.3,6.5,4.3,10.4c0,3.9-1.5,7.6-4.3,10.4
					c-5.5,5.6-15.2,5.6-20.8,0c-5.7-5.7-5.7-15,0-20.8C140.5,650.2,144.2,648.6,148.1,648.6z M148.2,673.2c2.6,0,5.1-1,7-2.9
					c1.9-1.9,2.9-4.3,2.9-7c0-2.6-1-5.1-2.9-7c-3.7-3.7-10.3-3.7-14,0c-3.9,3.9-3.9,10.1,0,14C143,672.2,145.5,673.2,148.2,673.2z"
					/>
			</g>
			<g id="XMLID_206_">
				<path id="XMLID_26_" class="st4" d="M153.4,797.6c-4.8-4.8-12.6-4.8-17.4,0c-4.8,4.8-4.8,12.6,0,17.4c4.8,4.8,12.6,4.8,17.4,0
					C158.2,810.1,158.2,802.4,153.4,797.6z"/>
			</g>
		</g>
	</g>
</g>
</svg>
