<?xml version="1.0" encoding="utf-8"?>
<!-- Generator: Adobe Illustrator 19.0.0, SVG Export Plug-In . SVG Version: 6.00 Build 0)  -->
<svg version="1.1" id="Layer_1" xmlns="http://www.w3.org/2000/svg" xmlns:xlink="http://www.w3.org/1999/xlink" x="0px" y="0px"
	 viewBox="-51 143.8 507.2 507.2" style="enable-background:new -51 143.8 507.2 507.2;" xml:space="preserve">
<style type="text/css">
	.st0{fill:#FFD400;}
	.st1{fill:#DDB300;}
	.st2{fill:#FFFFFF;}
</style>
<circle class="st0" cx="202.6" cy="397.4" r="253.6"/>
<path class="st1" d="M137.8,511.8l130.4,130.4c108-28.8,188-127.2,188-244.8c0-2.4,0-4.8,0-7.2l-102.4-94.4L137.8,511.8z"/>
<g>
	<path class="st2" d="M209,454.2c11.2,11.2,11.2,30.4,0,41.6L185.8,519c-11.2,11.2-30.4,11.2-41.6,0L42.6,416.6
		c-11.2-11.2-11.2-30.4,0-41.6l23.2-23.2c11.2-11.2,30.4-11.2,41.6,0L209,454.2z"/>
	<path class="st2" d="M297.8,277.4c11.2-11.2,30.4-11.2,41.6,0l23.2,23.2c11.2,11.2,11.2,30.4,0,41.6l-176,175.2
		c-11.2,11.2-30.4,11.2-41.6,0l-23.2-23.2c-11.2-11.2-11.2-30.4,0-41.6L297.8,277.4z"/>
</g>
</svg>
