<svg id="Template" xmlns="http://www.w3.org/2000/svg" viewBox="0 0 382.68 382.68"><defs><style>.cls-1{fill:#fed233;}.cls-2{fill:#fff;}</style></defs><title>Confirmation Yellow Circle</title><circle class="cls-1" cx="191.34" cy="191.34" r="191.34"/><g id="Confirm"><path class="cls-2" d="M41.15,182c.74-5.2,1.32-10.43,2.26-15.59,6.25-34.17,22.71-62.7,48.3-85.93,21.3-19.33,46.12-31.89,74.54-36.93,34-6,66.2-.39,96.09,16.6,38.83,22.06,64.46,54.79,75,98.37,9.42,38.93,2.73,75.74-18.23,109.63-21.62,35-52.47,58.12-92.34,68.69-7.78,2.06-15.92,2.77-23.9,4.1-.95.16-1.9.35-2.85.52H182.44c-2-.24-4-.5-6.07-.73A146.89,146.89,0,0,1,103,311.55c-31-23.46-51.13-54.07-59-92.35-1.3-6.27-1.91-12.68-2.83-19Zm288.44,9.48C329.64,116.56,266.31,53.1,191.41,53S53,116.26,52.87,191.12c-.09,75.06,63.31,138.6,138.33,138.62S329.54,266.37,329.59,191.48Z" transform="translate(0)"/><path class="cls-2" d="M191.14,316.59c-57.64-.43-109.1-42-121.85-98.81-7.68-34.17.21-65.17,19.07-93.94,2-3.1,5.64-3.9,8.38-2s3.43,5.3,1.32,8.54c-7.17,11-13,22.71-16.37,35.46C73.71,195.84,79,224,95.19,250c18.29,29.27,44.74,47.42,78.92,53,31.16,5.12,59.57-2.67,84.64-21.7,24.37-18.51,39.55-43,44.27-73.35,4.82-31-2.89-59.19-21.76-84.09-18.42-24.3-42.85-39.24-73-44.35-24.17-4.09-46.75,1-68,12.68-3.5,1.92-6.85,4.12-10.3,6.14-3.13,1.84-6.48,1.18-8.28-1.54a5.81,5.81,0,0,1,1.88-8.18C145.83,74,170,65.09,197.1,66.68c37.12,2.18,67.4,18.26,91,46.83a119.2,119.2,0,0,1,27.3,64.92c3.52,34.79-6.35,65.74-28.71,92.48-20.11,24.07-45.83,38.8-76.88,43.86C203.63,315.77,197.36,316,191.14,316.59Z" transform="translate(0)"/><path class="cls-2" d="M173.67,199.12c.88-.83,1.66-1.54,2.41-2.29,17.06-17.06,34-34.19,51.21-51.15,12.43-12.29,32.82-7.91,38.64,8.25,3.4,9.45,1.29,17.93-5.73,25-10.63,10.77-21.39,21.43-32.09,32.13q-18.35,18.34-36.68,36.68c-10.87,10.84-24.67,10.87-35.49.07-11.4-11.39-22.92-22.67-34.15-34.23a23.29,23.29,0,0,1,10.07-38.83c8.69-2.53,16.47-.5,23,5.73,5.65,5.39,11.08,11,16.61,16.53C172.14,197.74,172.86,198.37,173.67,199.12ZM174,216c-1.24-1.19-2-1.9-2.77-2.65-8.09-8.08-16.14-16.19-24.27-24.23A11.73,11.73,0,0,0,127,194.9c-1,4.5.69,8.19,3.88,11.37Q147.3,222.62,163.65,239c6.9,6.9,13.09,6.92,19.95.06l67-66.95c.83-.83,1.68-1.65,2.42-2.55a11.7,11.7,0,0,0-7-19.06c-4.53-.79-8.11,1.07-11.28,4.25Q205.6,183.94,176.46,213C175.63,213.85,174.94,214.82,174,216Z" transform="translate(0)"/><path class="cls-2" d="M108.56,114.55a5.84,5.84,0,1,1,5.85-6A5.91,5.91,0,0,1,108.56,114.55Z" transform="translate(0)"/></g></svg>