<svg id="Template" xmlns="http://www.w3.org/2000/svg" viewBox="0 0 382.68 382.68"><defs><style>.cls-1{fill:#fed233;}.cls-2{fill:#fff;}</style></defs><title>Enjoy Break Yellow Circle</title><circle class="cls-1" cx="191.34" cy="191.34" r="191.34"/><g id="Lotus"><path class="cls-2" d="M336.2,186.84c-1.06,4-1.85,8.07-3.23,11.94-5.39,15-14.59,27.63-25.63,38.89-6.32,6.44-13.28,12.25-20.13,18.51,1.51,1.58,3.45,3.44,5.19,5.47,4.22,4.94,4.25,7.07,0,12.05-6,7.08-13.76,11.66-22.19,15.19-11.07,4.64-22.58,7.54-34.62,7.08-5.28-.2-10.49-1.83-15.76-2.68a4.4,4.4,0,0,0-2.89.58c-7.49,5.05-14.9,10.21-22.36,15.29a5.52,5.52,0,0,1-6.63,0c-7.46-5.09-14.88-10.24-22.35-15.31a3.27,3.27,0,0,0-2.36-.67c-12,4.61-24.14,3.41-36.19.53-12.4-3-24-7.74-33.59-16.56a39,39,0,0,1-4.84-5.5c-2.19-2.93-2.19-5,.13-8,2.07-2.67,4.43-5.11,6.94-7.95-.77-.6-1.68-1.32-2.61-2C77.24,241.44,63.87,227,54.3,209.31A66.33,66.33,0,0,1,46.69,187c-.72-5.12.22-7,5.07-9,11.53-4.78,23.62-5.29,35.85-4.44,2.35.16,4.69.46,7.4.73-.26-2.93-.55-5.78-.75-8.64-.81-12.12-.34-24.11,3.6-35.76,3.29-9.7,4.86-10.59,14.9-8.45,11.8,2.53,22.28,8,32.24,14.58,1.32.88,2.62,1.79,4.14,2.84.72-2.2,1.34-4.14,2-6.07,1.28-3.88,4.18-5.66,7.45-4.58s4.54,4.1,3.33,7.86A209.31,209.31,0,0,0,153.18,174c-2.14,16.83-2.9,33.64,2.23,50.16,3.78,12.16,11.23,21.86,20.68,30.15,2.94,2.58,6,5,9.58,8V151.63c0-.95,0-1.89,0-2.83a5.63,5.63,0,0,1,11.23.09c.09.93,0,1.88,0,2.82V261.87c.85-.54,1.47-.86,2-1.28,9.64-7.55,18.45-15.82,24.24-26.88a68.85,68.85,0,0,0,7.58-30.17,186.66,186.66,0,0,0-24.21-98.92A110.23,110.23,0,0,0,197.3,91.5c-1.65-2.13-3.86-3.85-6.28-6.21-1.89,2-3.86,4.15-5.8,6.28-2.73,3-6.16,3.45-8.67,1.15S174,87,176.71,84.2c3.34-3.44,6.83-6.77,10.47-9.89,3-2.58,5.21-2.44,8.39,0,10.86,8.34,18.71,19.19,24.54,31.34,4.71,9.81,8.37,20.14,12.48,30.24.35.84.59,1.73,1,2.85,1.71-1.14,3.25-2.2,4.81-3.22,10.65-7,21.86-12.59,34.6-14.64,6.58-1.06,8.23-.19,10.74,6.08,4.94,12.38,5.52,25.31,4.7,38.39-.18,2.89-.52,5.77-.77,8.5,6.93-.19,13.68-.62,20.42-.52a56.8,56.8,0,0,1,22.56,4.6c2.1.94,3.74,2.89,5.59,4.38ZM160.68,255.23c-.4-.58-.58-.91-.82-1.18-13.63-15.25-19-33.48-19.52-53.52a184.9,184.9,0,0,1,4.8-45.71c.7-3.09.3-4.81-2.4-6.68-9.59-6.64-19.49-12.51-30.94-15.4-2.24-.57-3.37-.12-3.72,2.21-.89,5.94-2.35,11.85-2.66,17.83-.72,14.05,1.6,27.8,5.41,41.3,4.37,15.53,10.34,30.32,20.44,43.12C138.78,246.72,148.54,252.63,160.68,255.23Zm61,.09c12.61-2.75,22.33-8.77,29.88-18.29,7.77-9.8,13-20.93,17.07-32.65,6.5-18.88,10.28-38.21,8.14-58.3-.49-4.61-1.74-9.14-2.68-13.86-1.58.29-2.51.41-3.41.63C259,135.71,249,141.77,239.3,148.62c-2.13,1.51-2.53,2.89-2,5.33a188.94,188.94,0,0,1,5,41.17c.1,13.12-1.43,25.95-6.46,38.19A76.09,76.09,0,0,1,221.65,255.32Zm-164-68.18c1.9,5.13,3.09,9.42,5,13.36C72,219.86,86.38,235,103.74,247.37c8.19,5.84,17,10.56,27.07,12.15a87.27,87.27,0,0,0,8.88.53c-14-9.26-22.12-20.85-28.76-34a159.51,159.51,0,0,1-13.12-37.16c-.31-1.41-.34-3-2.52-3.11-7.32-.31-14.66-1.09-22-.95C68.32,184.9,63.36,186.24,57.6,187.14Zm185,72.4a4.72,4.72,0,0,0,1,.38c.76.06,1.51.08,2.26.08a41.9,41.9,0,0,0,18.81-4.44c22.48-11,39.54-27.92,52.37-49.23a57.08,57.08,0,0,0,7.32-18.7c-1-.33-1.86-.66-2.74-.91-10.28-2.83-20.7-2.59-31.14-1.34-5,.6-5,.75-6.16,5.63-.44,1.83-.87,3.66-1.38,5.47-4.39,15.48-10.28,30.29-19.58,43.57A67.22,67.22,0,0,1,242.58,259.54ZM209.3,269c5.12,7.74,10.88,14.25,20.33,15.24,18.78,2,35.74-3,50.85-14.33a24.27,24.27,0,0,1,2.87-1.62c-1.51-1.42-2.11-2-2.74-2.57-3.8-3.4-3.82-3.43-8.41-1.1-15.34,7.74-31.07,9-47.26,3a5.56,5.56,0,0,0-2.42-.63C218.24,267.48,214,268.21,209.3,269Zm-109.15-1c1,.92,1.95,1.88,3,2.66,13.43,9.92,28.67,14.19,45.22,14.12,11.45-.05,19-6.32,24.9-15.83-3.91-.59-7.6-1.25-11.31-1.67a10,10,0,0,0-4.35.37c-15.8,5.73-31.18,4.76-46.25-2.59-5.91-2.89-6.49-2.69-11,2.34A3.16,3.16,0,0,0,100.15,268Zm73.73,18.6c5.54,3.65,10.92,7.24,16.36,10.73a2.28,2.28,0,0,0,2,.08c5.51-3.53,11-7.16,16.49-10.8-3.45-4.26-6.5-8-9.79-12.06-5.08,5.86-10.3,5.68-15.3,0Z" transform="translate(0)"/><path class="cls-2" d="M172.12,110a5.5,5.5,0,0,1-5.55,5.56,5.67,5.67,0,0,1-5.7-5.48,5.82,5.82,0,0,1,5.77-5.78A5.65,5.65,0,0,1,172.12,110Z" transform="translate(0)"/></g></svg>