<svg id="Template" xmlns="http://www.w3.org/2000/svg" viewBox="0 0 273.42 382.68"><title>Extra Cleaning</title><g id="Extra_Cleaning" data-name="Extra Cleaning"><path d="M118.89,382.68c-4.92-2.26-10.31-3.86-14.67-6.92A27.81,27.81,0,0,1,92,352.52c-.23-29.14-.17-58.29-.16-87.43,0-4.08,2.26-6.48,5.65-6.44s5.64,2.57,5.64,6.9q0,41.65,0,83.32a28.63,28.63,0,0,0,.42,5.94c2.12,9.69,9.93,16.51,19.89,16.58q43.71.28,87.44,0c11.42-.08,19.77-8.78,20.31-20.21,0-.49,0-1,0-1.49.34-3.94,2.73-6.41,6-6.24s5.55,2.83,5.48,6.78a32.46,32.46,0,0,1-24.33,31.58,24.58,24.58,0,0,0-2.35.88Z" transform="translate(-54.63 0)"/><path d="M233.3,182.29c7.66,11.74,9.93,24,9.45,37.2,8.55,0,16.86.31,25.13-.18,2.55-.15,5.29-2.11,7.38-3.9C279,212.18,282.2,208.25,286,205a11.54,11.54,0,0,1,6.51-2.84c9.46-.31,18.93-.18,28.4-.11,4.45,0,7.26,2.44,7.15,5.89s-2.86,5.58-7.43,5.6c-8,0-15.95-.13-23.91.11a8.77,8.77,0,0,0-5.48,2.18c-15.66,15.88-16.35,15.28-37.42,15.13-3.47,0-6.94,0-11,0v91.21c0,5.76-2.06,8.78-5.88,8.69s-5.66-3-5.66-8.53c0-35-.39-70,.18-105,.25-15.41-5.5-27.75-15.14-38.92a11.16,11.16,0,0,0-3-2.16,48.31,48.31,0,0,1-20.66-21.91c-1.06-2.27-2.31-3-4.78-3-9.59.14-19.18,0-28.77.12-1.71,0-3.41.93-5.63,1.59,7.48,9.55,7.67,18.31.63,27.29,4.32,5.3,6.41,11.28,4.45,18.21A18.43,18.43,0,0,1,141,212.29c-5.35.13-10.71,0-16.06.08-1.08,0-2.49,0-3.16.61C114,220.2,106.3,227.49,104,238.53a29.25,29.25,0,0,1-.73,3.27c-1.07,3.27-3.85,4.82-7,4a5.75,5.75,0,0,1-4-6.73,48.12,48.12,0,0,1,13.39-26.13c1-1.06,2.06-2.16,3.08-3.25.07-.08,0-.23.06-.35-9.66-10.38-10.46-18.42-3.54-27.81-1.58-5.19-3.5-9.63-4.17-14.25-.73-5,1.72-9.4,5.13-13.28-5.3-6.17-6.63-13.05-3.86-20.9-9.68,0-19,.14-28.34,0-8.26-.16-14.21-4.33-17.57-11.76s-2.11-14.65,3.11-20.92A18.47,18.47,0,0,1,74,93.47c4.35-.09,8.72-.18,13.07,0,2.51.13,3.38-1,3.53-3.15.07-1.12.19-2.23.19-3.35,0-14.2-.09-28.4.08-42.6.05-3.7-1.3-4.88-4.81-4.7-3.85.19-7.73.14-11.58-.05-6.49-.32-12.1-4.9-13-11.3a46.12,46.12,0,0,1,0-13C62.36,8.69,68.25,4,75,3.78c2.36-.08,4.73,0,7.1,0,3.69,0,7.31.35,10.56-2.38C94,.25,96.4.07,98.32.06q39.62-.12,79.22,0c4.31,0,7,2.15,7,5.56s-2.63,5.61-6.91,5.61c-25.41,0-50.82.08-76.23-.07-3.47,0-4.53.92-4.35,4.36.28,5.33.07,10.69.07,16.51,1.5.07,2.81.18,4.12.18,9.09,0,18.19.11,27.28,0a7.43,7.43,0,0,1,7.43,4.49C141.25,47,146.67,57.33,152.24,68c8.37-5.19,17.55-4.4,26.62-4.4h20.08c0-4,.11-7.54,0-11.12-.15-3.95,1.61-6.25,5.36-7.41,11.15-3.46,22.26-7,33.39-10.57.69-.22,1.36-.49,2.28-.82-9-12.72-19.59-22.37-36.14-22.53-4.38,0-6.79-2.21-6.69-5.74s2.55-5.43,7-5.43A46.34,46.34,0,0,1,238,14a166.94,166.94,0,0,1,11.62,13.15c5,6.13,2.63,14.36-4.87,17-9.27,3.19-18.67,6-28,9-7.26,2.29-7.35,2.41-6,10.19,2.79.46,5.63.74,8.38,1.4,6.37,1.55,11.47,5.17,15.83,10,8.08,9,16.3,17.84,24.34,26.86a6.5,6.5,0,0,0,5.43,2.41c18.94-.09,37.87-.14,56.8.08a8,8,0,0,1,5.67,3.09c.86,1.28.44,4.26-.55,5.69S323.27,115,321.5,115c-20.55.14-41.11.18-61.66,0a9.94,9.94,0,0,1-6.28-3.09c-9.24-9.78-18.29-19.73-27.26-29.76A20,20,0,0,0,210.51,75q-20.55.09-41.1,0a21.74,21.74,0,0,0-16.15,6.47c-5.21,5.18-10.63,10.15-15.9,15.27-4.41,4.29-4.88,10-1.28,14s9.54,4.12,14.29-.06c3.65-3.21,7.21-6.52,10.76-9.83a6,6,0,0,1,7.49-1.08q13.26,6.85,26.58,13.57c2.63,1.33,3.65,3.38,3.73,6.31.19,7.2-.29,14.58,1.12,21.56,3.4,16.86,17.09,28.1,34.82,29.76,1,.1,2,.08,3,.23a5.19,5.19,0,0,1,4.75,5.35c.08,3.08-1.7,5.16-4.83,5.71A28.77,28.77,0,0,1,233.3,182.29ZM122.26,105c-7.64-1.14-14.35-1-18.78,6.13a8.11,8.11,0,0,1-2.5,2.21,8.83,8.83,0,0,1-13.5-4.9c-.36-1.18-.57-2.39-.9-3.8h-3c-3,0-6-.11-9,.06a8.59,8.59,0,0,0-8.07,6.1c-1.65,6,2.43,11,9.06,11,17.68,0,35.36,0,53,0a18,18,0,0,0,2.41-.42A21.72,21.72,0,0,1,122.26,105Zm37.1,34.67h28.3c0-5.4.08-10.6-.07-15.78a3.47,3.47,0,0,0-1.61-2.48c-6.46-3.41-13-6.68-19.28-9.87L150.56,124.8C155.69,128.18,158.52,133.23,159.36,139.69ZM119.14,93.82c2.86-.49,5.42-.15,6.65-1.27,5.53-5,10.73-10.37,15.91-15.74a3.44,3.44,0,0,0,.57-3.11q-7.22-14.32-14.77-28.47c-.48-.9-1.73-1.39-3.37-2.64,0,9.18-.08,17.14,0,25.1C124.28,76.42,124.41,85.13,119.14,93.82ZM102.05,96.3c5.44-4.43,10.35-10.41,10.67-18.61.42-11.17.07-22.37,0-33.55,0-.18-.3-.36-.43-.51h-9.77c-.1.9-.23,1.62-.24,2.34C102.21,62.9,102.13,79.83,102.05,96.3Zm28.14,51.84c3.36,0,6.72.09,10.08,0,4.38-.14,7.46-3.07,7.67-7.1a7.28,7.28,0,0,0-6.69-7.67c-7.44-.34-14.93-.34-22.38,0a7.18,7.18,0,0,0-6.53,7.76,7.4,7.4,0,0,0,7.39,7C123.21,148.24,126.7,148.13,130.19,148.14Zm-.15,11.6c-3.49,0-7-.12-10.46,0a7.32,7.32,0,0,0-7.26,7.08c-.16,3.67,2.41,7.32,6.34,7.52,7.56.39,15.17.4,22.74,0a7.15,7.15,0,0,0,6.53-7.74,7.37,7.37,0,0,0-7.44-6.92C137,159.63,133.52,159.73,130,159.74Zm0,26.31c-3.24,0-6.47-.06-9.71,0-4.62.1-8.06,3.44-8,7.62a7.67,7.67,0,0,0,7.85,7.38q9.9.15,19.8,0c4.6-.06,8.07-3.49,8-7.64s-3.44-7.25-7.86-7.35C136.72,186,133.35,186.05,130,186.05ZM85.38,15c-3.32,0-6.41-.1-9.49,0-2.36.1-3.84,1.5-3.48,3.89.49,3.18-1.94,7.14,2.3,9.39a.77.77,0,0,0,.37.07h10.3Z" transform="translate(-54.63 0)"/></g></svg>