<svg id="Template" xmlns="http://www.w3.org/2000/svg" viewBox="0 0 261.56 375.74"><title>Single User</title><path d="M68.86,379.42c-3.34-1.88-4.47-4.71-4.41-8.53.18-11.12,0-22.25.08-33.38.1-22.69,9.19-40.84,27.56-54.27.39-.28.75-.61,2.17-1.76a13.6,13.6,0,0,1-2.73-1.37C58.2,251.44,50.68,202.54,74.31,165.5c9.37-14.68,14.11-30.3,13.77-47.72-.25-12.82-.57-25.74.66-38.46A83.13,83.13,0,0,1,150.17,6.89a93.63,93.63,0,0,1,21.3-2.95c13.67-.46,27.38-.21,41.07-.12,38.9.25,75,30.93,80.59,69.48,1.86,12.85,1.12,26.06,1.66,39.11.32,7.67.39,15.39,1.32,23,1.24,10.08,5.36,19.22,10.93,27.68a88.67,88.67,0,0,1,14.81,56.68,87,87,0,0,1-14.92,42.71c-2.39,3.54-6,4.46-9.14,2.49-3.29-2.08-3.88-5.69-1.29-9.6a75.94,75.94,0,0,0,13-42.07c.12-14.88-3.62-28.86-11.84-41.29a91.65,91.65,0,0,1-15.55-54c.25-12,.2-24-.42-35.92-1.61-30.91-27.19-59.27-57.84-64.36a103.38,103.38,0,0,0-16.76-1.39c-13.93,0-27.91-.41-41.77.62-30,2.21-56.3,25.51-62.61,54.84a104.41,104.41,0,0,0-2,18.53c-.31,9.89-.2,19.8-.06,29.7A88.07,88.07,0,0,1,85.77,170.9,73.45,73.45,0,0,0,73.3,212.75c.29,25.47,10.9,45.91,31,61.49.78.6,2.16,1.27,2.9,1,8.6-3.29,17.73-3,26.64-4.32a25.39,25.39,0,0,0,21.45-24.68,4.79,4.79,0,0,0-2.23-3.46c-22.6-12.3-37.22-30.79-43.22-55.85a67.46,67.46,0,0,1-2-14.47c-.27-15.89-.18-31.79-.15-47.68,0-4.15,2.46-6.65,6.17-6.67s6.16,2.52,6.32,6.57c0,.85,0,1.71,0,2.57q0,20,0,40c0,35.62,24.13,64.57,59.2,71.17,37,7,75.21-19.23,81.64-56.38,1.22-7,1.3-14.32,1.47-21.51.24-9.76.06-19.53.06-29.56-7.8-.81-14.86-3.16-20.81-8.21s-9.65-11.56-12.07-19.52c-1.41.81-2.62,1.46-3.8,2.18a212.44,212.44,0,0,1-81,29.17c-4.49.64-7.59-1.28-8.25-5.13s2.22-6.45,6.82-7.48c11.87-2.68,23.87-5,35.48-8.61,18.19-5.6,34.91-14.47,50.51-25.39,2.71-1.9,5.56-3.08,8.37-.84a9.73,9.73,0,0,1,2.76,4.82c1.17,4.08,1.46,8.47,3,12.36,3.72,9.29,12,14.22,22.4,14,7.5-.19,9.09,1.33,9.09,8.75,0,14.79.15,29.59-.1,44.38-.63,37.63-29.56,71.74-66.6,78.9A87.05,87.05,0,0,1,168,248.7c-1.45,10.69-5.91,19.79-14.46,26.9l37.82,29.28,19.77-15.27a36,36,0,0,1,2.94-2.18,6.23,6.23,0,0,1,7.71,9.75q-13.47,10.74-27.26,21.08c-2.73,2-5.5.82-8-1.15-13.79-10.73-27.66-21.37-41.42-32.14a8.41,8.41,0,0,0-7.58-1.89c-6,1.15-12.2.89-18.15,2.1C94,290.34,77.43,310.83,77.17,336.89c-.11,11.25-.12,22.5,0,33.75.05,3.69-.82,6.66-3.95,8.78Z" transform="translate(-60.56 -3.67)"/><path d="M309.5,379.42c-3.14-2.11-3.95-5.1-3.94-8.78,0-13.31.28-26.65-.46-39.93-1.3-23-21.58-43.6-44.51-46-6-.64-12.22-.84-18.09-2.27-9-2.19-15.95-7.7-21.11-15.4-2.7-4-2.34-7.72.93-9.95,3.07-2.09,6.77-1.16,9.38,2.63,5.59,8.1,13.38,11.79,23.06,11.91,32,.39,59.55,24.63,62.65,56.48,1.46,15,.78,30.25.62,45.39,0,2-2.69,4-4.13,6Z" transform="translate(-60.56 -3.67)"/></svg>