<svg id="Template" xmlns="http://www.w3.org/2000/svg" viewBox="0 0 382.68 382.68"><defs><style>.cls-1{fill:#fed233;}.cls-2{fill:#fff;}</style></defs><title>Checkin Yellow Circle</title><circle class="cls-1" cx="191.34" cy="191.34" r="191.34"/><path class="cls-2" d="M131.06,343.54c-.84-1.41-1.57-2.91-2.53-4.23C123.3,332.13,118,325,112.77,317.82a6.26,6.26,0,0,1-1.09-3.26c-.12-4.46-.17-8.92,0-13.37a7.14,7.14,0,0,1,1.59-3.84c1.72-2.13,3.74-4,5.74-6.12l-8.87-9.41,9-9.52-9-9.47,8.93-9.49a7.35,7.35,0,0,0-1-1.19c-5.75-3.81-7.26-9.22-6.47-15.81a63.52,63.52,0,0,0,0-10.86,4.06,4.06,0,0,0-1.59-2.8c-18.47-12-26.36-29.14-24.65-50.82.9-11.43,5.5-21.34,13.11-30,3.68-4.21,8.14-7.14,12.69-10.19,5.55-3.71,11.8-5,18.38-6.08,0-4.79.12-9.42,0-14-.42-13.61,2-26.59,8.56-38.61a60.05,60.05,0,0,1,6.85-10.08,65.56,65.56,0,0,1,20.7-16.47,57.41,57.41,0,0,1,18.9-5.79c.24,0,.46-.28.69-.43h13.38c4.56,1.13,9.33,1.73,13.65,3.46,15.1,6,26.7,16.09,34.24,30.72a67.49,67.49,0,0,1,7.42,24.87c.21,2.23,1.3,3.18,3.48,3.47a41.58,41.58,0,0,1,20,7.85c10.75,8.2,17.83,18.94,20.35,32.36a62.92,62.92,0,0,1,1.13,11.61q.12,62,.05,124.06v2.89H201.08c-.05-.95-.13-1.94-.13-2.92q0-61.89,0-123.78c0-11.89,3.13-22.82,10.26-32.57,7.93-10.84,18.26-17.61,31.62-19.51,2.19-.31,2.83-1.37,2.55-3.38a60.61,60.61,0,0,0-6.48-20.84,55.87,55.87,0,0,0-22.61-23c-15.15-8.33-30.76-8.69-45.87-1.56-17.84,8.42-28.66,23.2-31.44,42.88-1.26,8.94-.7,18.15-.82,27.24,0,.66,1.17,1.69,2,1.92,2.39.69,5,.78,7.31,1.59,17.93,6.23,29.16,18.79,33.64,37.07a52.57,52.57,0,0,1-6.19,41c-4.33,7.19-9.79,13.23-17.35,17.09-1.77.91-1.61,2.26-1.61,3.73,0,27.6-.18,55.2.15,82.79a21.85,21.85,0,0,1-4.72,13.94c-4.66,6.34-9.15,12.8-13.7,19.22a6.07,6.07,0,0,0-.49,1.23Zm114.56-233c-1.84.62-3.14,1.17-4.5,1.49a38.38,38.38,0,0,0-20.2,12c-6.8,7.63-11.09,16.43-11.18,26.59-.28,33.64-.16,67.29-.18,100.93,0,.63.12,1.25.2,2h80.57V249.8q0-45.17,0-90.33c0-3.44,0-6.9-.28-10.31-1.24-13-7.07-23.54-17.63-31.07-3.83-2.73-8.67-4-13.09-5.9a49.7,49.7,0,0,0-5.11-1.53c0,3.61-.07,6.66.06,9.71a2.55,2.55,0,0,0,1.21,1.82,12.7,12.7,0,0,1,7.56,10.6c1.17,10.79-7.59,18.09-17.3,14.9-5.28-1.74-8.1-5.78-8.66-11.2-.61-5.81,1.3-10.56,6.46-13.79a4.14,4.14,0,0,0,2-2.49C245.77,117.27,245.62,114.29,245.62,110.56ZM138.1,134.76c0,3.41-.06,6.45.06,9.49,0,.51.77,1.21,1.34,1.46,3.18,1.41,5.07,3.95,6.39,7a14.4,14.4,0,0,1-5.58,18c-5.24,3.33-11.63,2-15.71-2.76-6.23-7.29-4.66-17.28,3.47-22.17.56-.33,1.32-1,1.34-1.47.12-3.12.06-6.23.06-9.61-6.61,1.07-12.26,2.95-17.48,6.71-7.51,5.41-12.93,12.2-15.87,20.86-4.88,14.33-3.19,27.92,5.3,40.57a36,36,0,0,0,14.19,12.55c3.22,1.59,5.12,3.65,4.7,7.82-.52,5.24,0,10.58-.16,15.88a5.87,5.87,0,0,0,1.86,4.66c3,3,5.79,6.17,9,9.6l-8.77,9.36,8.94,9.56-9,9.46c3,3.15,5.78,6.15,8.79,9.37-1.54,1.72-2.93,3.43-4.48,5-6.85,6.81-6.88,6.79-6.19,16.23a4.67,4.67,0,0,0,.77,2.3c4.22,5.78,8.51,11.52,12.83,17.35,4-5.44,8-10.66,11.69-16a9.42,9.42,0,0,0,1.76-5c.12-21.84.08-43.68.08-65.52,0-8.36,0-16.72,0-25.09a3.55,3.55,0,0,1,1-2.52c1.75-1.29,3.89-2.08,5.58-3.44a85.79,85.79,0,0,0,10-8.65c7.1-7.71,10.22-17.17,10.3-27.49.12-15-5.4-27.42-17.88-36.32-.53-.38-1.08-.72-1.58-1.14C150,136.88,144.33,135.74,138.1,134.76Zm71.55,137.72h80.43v-9.63H209.65ZM129.38,158.39a4.75,4.75,0,0,0,4.72,5.05,5,5,0,1,0-4.72-5.05Zm125.5-23.6c0-2.41-2.53-5.28-4.68-5.28s-4.74,2.91-4.73,5.26a4.86,4.86,0,0,0,4.57,4.67A4.79,4.79,0,0,0,254.88,134.79Z" transform="translate(0)"/><path class="cls-2" d="M129.38,158.39" transform="translate(0)"/><path class="cls-2" d="M228,158.38h8.2v85.07H228Z" transform="translate(0)"/><path class="cls-2" d="M271.89,224.44h-8.21v-66.2h8.21Z" transform="translate(0)"/><path class="cls-2" d="M254,205.61H245.8V158.37H254Z" transform="translate(0)"/></svg>