<svg id="Template" xmlns="http://www.w3.org/2000/svg" viewBox="0 0 382.68 382.68"><defs><style>.cls-1{fill:#fed233;}.cls-2{fill:#fff;}</style></defs><title>Book Yellow Circle</title><circle class="cls-1" cx="191.34" cy="191.34" r="191.34"/><g id="Book"><path class="cls-2" d="M266.25,63.42h13.06c.16.15.29.36.47.43,6.12,2.31,8.81,6.16,8.82,12.71,0,5,0,10.09,0,15.14v3.48c1.37,0,2.38,0,3.38,0,5.7.13,10.82,1.73,15,5.82,3.22,3.15,4.82,7.13,5.9,11.38v173a46.87,46.87,0,0,1-2,5.4c-4,7.87-10.56,11.4-19.26,11.39q-51.06,0-102.11,0c-32.09,0-64.18.06-96.28-.09a23.53,23.53,0,0,1-9.65-2c-7.76-3.66-11.34-10.22-11.34-18.76q0-82.65,0-165.28c0-.55,0-1.09,0-1.63A19.68,19.68,0,0,1,89.64,95.52c2.06-.26,4.14-.35,6.45-.53v-2.3c0-5.68-.06-11.35,0-17a11.89,11.89,0,0,1,6.83-11.07c.93-.48,1.94-.79,2.91-1.18h13.06a4.08,4.08,0,0,0,.79.44c5.09,1.64,8.08,5.06,8.61,10.41.25,2.46.21,5,.23,7.44,0,4.4,0,8.81,0,13.34H256.61V92.43c0-5.13-.05-10.25,0-15.38a21.42,21.42,0,0,1,.62-5C258.48,67.34,262,64.93,266.25,63.42ZM80.22,167v90.64c0,7.93,0,15.85,0,23.78.07,7.7,5,12.65,12.71,12.81.7,0,1.4,0,2.1,0q97.66,0,195.35-.06a20.13,20.13,0,0,0,7.91-1.44c5.05-2.26,6.65-6.79,6.65-12.07q0-55.6,0-111.2V167Zm0-8.25H304.91c0-14.71.22-29.24-.09-43.76-.17-8.33-7.11-13-16.22-11.3,0,3.78.07,7.58,0,11.38-.14,6.35-4.29,11.18-10.61,11.82a84.77,84.77,0,0,1-11.6-.08,7.61,7.61,0,0,1-3.06-1c-4.81-2.49-6.67-6.68-6.69-11.88,0-3.47,0-6.94,0-10.46H128.54c0,3.69.05,7.18,0,10.66-.12,7.51-4.23,12.22-11.56,12.94a43.65,43.65,0,0,1-9.07,0c-8-.91-11.8-5.36-11.81-13.58v-9.9c-9.47-1.53-15.83,3.79-15.87,13,0,4.81,0,9.63,0,14.45Zm40.17-63.36c0-6.45,0-12.89,0-19.34,0-3.07-1.45-4.54-4.55-4.65-2.09-.08-4.19-.06-6.28,0-3.37.07-5.38,2-5.39,5.35-.06,12.34-.2,24.69.08,37,.09,3.92,2,5.46,5.29,5.29,2-.11,4,0,6.06,0,3.47,0,4.78-1.33,4.8-4.77C120.41,108,120.39,101.66,120.39,95.37Zm160.17-.16c0-6.29,0-12.57,0-18.86,0-3.5-1.5-4.92-5-5-2.1,0-4.19-.08-6.28,0-2.92.11-4.48,1.53-4.48,4.23q-.07,19.67,0,39.33c0,2.59,1.46,4,4.08,4,2.09.08,4.19,0,6.28,0,4.16,0,5.38-1.22,5.39-5.43C280.58,107.46,280.56,101.34,280.56,95.21Z" transform="translate(0)"/><path class="cls-2" d="M220.58,206.64c-3.8,0-7.61.05-11.41,0-3.14,0-4.63-1.36-4.69-4.51q-.16-9.42,0-18.85c0-3,1.65-4.51,4.74-4.54q11.42-.1,22.82,0c3.32,0,4.78,1.62,4.8,4.94q0,9,0,17.93c0,3.55-1.37,5-4.86,5C228.18,206.68,224.38,206.64,220.58,206.64ZM212.7,187v11.53h15.51V187Z" transform="translate(0)"/><path class="cls-2" d="M220.82,218.63c3.8,0,7.6,0,11.4,0,3.11.05,4.6,1.5,4.62,4.55q.07,9.31,0,18.63c0,3-1.48,4.65-4.56,4.69q-11.64.13-23.28,0c-2.92,0-4.46-1.57-4.52-4.52q-.16-9.44,0-18.86c.06-3.14,1.55-4.46,4.7-4.5,3.87,0,7.76,0,11.64,0Zm7.44,8.12H212.71v11.52h15.55Z" transform="translate(0)"/><path class="cls-2" d="M112.39,206.65c-3.81,0-7.61,0-11.41,0-3.37,0-4.86-1.49-4.88-4.8q-.06-9.08,0-18.16c0-3.3,1.52-4.92,4.82-5q11.4-.1,22.82,0c3.16,0,4.73,1.58,4.77,4.76.1,6.13.09,12.26,0,18.39-.05,3.36-1.55,4.71-5,4.75C119.84,206.68,116.11,206.65,112.39,206.65Zm7.92-19.77c-5,0-9.83-.06-14.61.07-.54,0-1.43,1.06-1.49,1.69a48.76,48.76,0,0,0-.07,5.8c.07,4.69-.77,4.19,4.16,4.22,4,0,8,0,12,0Z" transform="translate(0)"/><path class="cls-2" d="M164.47,206.65c-3.73,0-7.45,0-11.18,0-3.54,0-5-1.43-5-4.91q0-9.07,0-18.16c0-3.18,1.5-4.8,4.68-4.83q11.52-.13,23,0,4.56,0,4.65,4.64.15,9.31,0,18.62c-.06,3.27-1.54,4.6-4.81,4.64C172.08,206.68,168.27,206.65,164.47,206.65Zm8-8.05V187.07h-16V198.6Z" transform="translate(0)"/><path class="cls-2" d="M112.21,218.61c3.8,0,7.6,0,11.41,0,3.28,0,4.83,1.38,4.89,4.57q.15,9.3,0,18.62c0,3.16-1.64,4.69-4.83,4.72q-11.4.1-22.81,0c-3.28,0-4.76-1.67-4.77-5q0-9.08,0-18.16c0-3.21,1.5-4.7,4.7-4.74C104.6,218.57,108.4,218.62,112.21,218.61Zm8.06,8c-5,0-9.84-.05-14.69.07-.5,0-1.35,1-1.38,1.52-.14,2.86-.13,5.73,0,8.59,0,.54.78,1.5,1.21,1.51,4.93.11,9.85.07,14.87.07Z" transform="translate(0)"/><path class="cls-2" d="M164.55,218.61c3.8,0,7.61,0,11.41,0,3.15,0,4.66,1.35,4.72,4.48q.16,9.42,0,18.85c-.06,3-1.65,4.53-4.72,4.56q-11.42.12-22.82,0c-3.32,0-4.81-1.62-4.83-4.92q0-9.08,0-18.16c0-3.35,1.46-4.79,4.83-4.83C157,218.58,160.75,218.61,164.55,218.61Zm7.9,19.7V226.79h-16v11.52Z" transform="translate(0)"/><path class="cls-2" d="M112.21,286.28c-3.73,0-7.46,0-11.18,0-3.34,0-4.91-1.52-4.93-4.8q-.06-9.19,0-18.4c0-3.16,1.59-4.7,4.77-4.72q11.4,0,22.82,0c3.18,0,4.77,1.47,4.82,4.68q.15,9.31,0,18.63c-.06,3.17-1.68,4.58-4.89,4.6C119.81,286.31,116,286.28,112.21,286.28Zm8.05-19.93c-5,0-9.76-.06-14.55.08-.54,0-1.47,1.1-1.5,1.73a73,73,0,0,0,0,8.37c0,.61.85,1.66,1.33,1.67,4.87.13,9.73.08,14.73.08Z" transform="translate(0)"/><path class="cls-2" d="M164.39,286.28c-3.73,0-7.45,0-11.18,0-3.36,0-4.88-1.51-4.9-4.81q0-9.21,0-18.4c0-3.17,1.56-4.69,4.75-4.71q11.42,0,22.82,0c3.11,0,4.72,1.39,4.78,4.46.13,6.28.12,12.57,0,18.86-.05,3.19-1.65,4.57-4.88,4.59C172,286.31,168.19,286.28,164.39,286.28Zm-7.95-19.82V278.1h16V266.46Z" transform="translate(0)"/><path class="cls-2" d="M272.73,206.65c-3.8,0-7.6,0-11.4,0-3.1,0-4.62-1.42-4.68-4.54q-.15-9.32,0-18.63c.05-3.16,1.63-4.7,4.81-4.73q11.18-.1,22.35,0c3.28,0,4.77,1.67,4.79,5q0,9.08,0,18.16c0,3.22-1.49,4.71-4.68,4.75C280.19,206.69,276.46,206.65,272.73,206.65Zm7.7-8.11V187.05H264.92v11.49Z" transform="translate(0)"/><path class="cls-2" d="M272.72,218.61c3.72,0,7.45,0,11.17,0,3.2,0,4.68,1.53,4.7,4.74q.06,9.19,0,18.39c0,3.06-1.49,4.71-4.53,4.75q-11.4.15-22.82,0c-3,0-4.54-1.63-4.59-4.71-.1-6.2-.1-12.42,0-18.62.06-3.19,1.61-4.53,4.89-4.57C265.27,218.58,269,218.61,272.72,218.61Zm-7.83,19.6H280.4V226.72H264.89Z" transform="translate(0)"/><path class="cls-2" d="M201.69,273.24c2-2,3.76-3.78,5.79-5.82l8.43,9.17c6.1-7.27,11.8-14.07,17.61-21L240,261c-3,3.31-5.94,6.45-8.74,9.71-3.74,4.35-7.33,8.83-11,13.21-2.53,3-4.68,3.08-7.44.36C209.13,280.68,205.47,277,201.69,273.24Z" transform="translate(0)"/><path class="cls-2" d="M249.91,273.14l5.51-5.47,8.68,9c6-7.19,11.61-13.9,17.39-20.8l6.19,5.08-16,19.25c-1.19,1.43-2.34,2.9-3.59,4.28-2.07,2.3-4.27,2.49-6.47.37C257.69,281.05,253.91,277.15,249.91,273.14Z" transform="translate(0)"/><path class="cls-2" d="M192.58,115.16h42.87c4.07,0,5.4,1.33,5.42,5.47q0,10.49,0,21c0,4-1.35,5.36-5.29,5.36h-86c-3.94,0-5.28-1.35-5.3-5.36q0-10.48,0-21c0-4.2,1.35-5.47,5.64-5.47ZM152.5,138.83h79.6V123.24H152.5Z" transform="translate(0)"/></g></svg>