<?xml version="1.0" encoding="utf-8"?>
<!-- Generator: Adobe Illustrator 19.0.0, SVG Export Plug-In . SVG Version: 6.00 Build 0)  -->
<svg version="1.1" id="Calque_1" xmlns="http://www.w3.org/2000/svg" xmlns:xlink="http://www.w3.org/1999/xlink" x="0px" y="0px"
	 viewBox="3 379.3 439.8 83.6" style="enable-background:new 3 379.3 439.8 83.6;" xml:space="preserve">
<style type="text/css">
	.st0{fill:url(#XMLID_5_);}
	.st1{fill:#2897D4;}
</style>
<g id="XMLID_8_">
	
		<linearGradient id="XMLID_5_" gradientUnits="userSpaceOnUse" x1="43.7" y1="466.3968" x2="43.7" y2="377.4941" gradientTransform="matrix(1 0 0 -1 0 842.47)">
		<stop  offset="0" style="stop-color:#009FE3"/>
		<stop  offset="0.1091" style="stop-color:#009ADC"/>
		<stop  offset="0.2783" style="stop-color:#008DC6"/>
		<stop  offset="0.4864" style="stop-color:#0079A5"/>
		<stop  offset="0.7254" style="stop-color:#005C7C"/>
		<stop  offset="0.9875" style="stop-color:#273A51"/>
		<stop  offset="1" style="stop-color:#27384F"/>
	</linearGradient>
	<path id="XMLID_10_" class="st0" d="M43.7,381.6C21.2,381.6,3,399.8,3,422.2s18.2,40.7,40.7,40.7c22.4,0,40.7-18.2,40.7-40.7
		S66.1,381.6,43.7,381.6z M50.4,385.4c-5.6,3.2,0.8-0.5-28,16.1c-3.2-2.9-8.4-0.6-8.4,3.7c0,2.8,2.3,5,5,5c3.1,0,5.5-2.8,4.9-5.9
		c29.6-17,23.5-13.5,31.1-17.8c8.5,2.7,15.7,8.4,20.4,15.8c-11.2,6.4-16.1,9.3-27.4,15.7c-0.9-0.8-2-1.2-3.3-1.2c-2.8,0-5,2.3-5,5
		c0,0.3,0,0.6,0.1,0.9c-30.9,17.8-26,15-29.3,16.9c-1.7-3.3-3-6.8-3.6-10.5c8.6-4.9,2.8-1.6,45.6-26.2c3.2,2.8,8.3,0.5,8.3-3.8
		c0-2.8-2.2-5-5-5c-3.1,0-5.6,2.9-4.9,6c-46.8,26.8-35.4,20.2-44.6,25.5C4.1,400.8,26.1,380.9,50.4,385.4z M16.4,404.9
		c0.2-1.8,2.1-2.9,3.7-2.1c1.1,0.5,1.8,1.6,1.5,2.9c-0.3,1.6-1.9,2.6-3.5,2C17,407.3,16.3,406.3,16.4,404.9z M42.1,421.8
		c0-0.1,0-0.3,0-0.4c0.2-1.3,1.3-2.2,2.6-2.2c0.3,0,0.7,0.1,1,0.2c1,0.4,1.7,1.3,1.7,2.5c0,0.1,0,0.2,0,0.3
		c-0.2,1.3-1.3,2.3-2.6,2.3c-0.4,0-0.7-0.1-1-0.2C42.8,423.9,42.1,422.9,42.1,421.8z M58.3,399.5c-0.3,1.6-1.9,2.7-3.6,2.1
		c-1.1-0.4-1.8-1.5-1.7-2.8c0.2-1.8,2.1-2.8,3.7-2.1C57.8,397.1,58.5,398.2,58.3,399.5z M38,459.3c5.7-3.3,0.8-0.4,26.8-15.4
		c3.6,3.1,9.1-0.1,8.2-4.7c-0.2-1.1-0.8-2.1-1.6-2.8c-3.6-3.3-9.3,0-8.3,4.8c-28.1,16.1-22.2,12.7-29.8,17.1
		c-8.8-2.6-16.3-8.3-21.2-15.9c4.1-2.3,23-13.3,29.3-16.9c0.9,0.8,2.1,1.3,3.3,1.3c3.1,0,5.6-2.8,4.9-6
		c28.2-16.2,23.8-13.6,27.4-15.7c1.7,3.3,2.9,6.8,3.6,10.5c-9.8,5.6-34.5,19.8-44.6,25.6c-3.2-2.9-8.4-0.5-8.4,3.8
		c0,1.5,0.6,2.8,1.7,3.8c3.6,3.1,9.1,0,8.2-4.7c42.7-24.5,34.5-19.9,43.4-25C83.1,443.4,61.9,462.9,38,459.3z M70.7,440.5
		c-0.3,1.6-1.9,2.6-3.5,2c-1.1-0.4-1.8-1.4-1.7-2.8c0.2-1.8,2-2.9,3.7-2.1C70.3,438.1,71,439.2,70.7,440.5z M30,444.7
		c0.2-1.7,2-2.8,3.6-2.1c1.1,0.5,1.8,1.6,1.6,2.8c-0.3,1.7-2,2.7-3.6,2.1C30.6,447,29.9,446,30,444.7z"/>
	<g id="XMLID_77_">
		<path id="XMLID_78_" class="st1" d="M134.2,419h-15.1l-2.6,8.5h-11.8l16.8-45.7h10.4l16.9,45.7H137L134.2,419z M121.8,410.5h9.8
			l-4.9-15.9L121.8,410.5z"/>
		<path id="XMLID_81_" class="st1" d="M169.3,418c0-0.9-0.5-1.6-1.4-2.2c-0.9-0.5-2.7-1.1-5.4-1.7c-2.6-0.6-4.8-1.4-6.5-2.3
			c-1.7-1-3-2.1-3.9-3.5c-0.9-1.4-1.3-2.9-1.3-4.7c0-3.1,1.3-5.7,3.9-7.7s5.9-3,10.1-3c4.5,0,8.1,1,10.8,3s4.1,4.7,4.1,8H169
			c0-2.7-1.4-4.1-4.3-4.1c-1.1,0-2,0.3-2.8,0.9c-0.8,0.6-1.1,1.4-1.1,2.3s0.5,1.7,1.4,2.3c0.9,0.6,2.4,1.1,4.4,1.4
			c2,0.4,3.8,0.8,5.3,1.3c5.1,1.8,7.7,4.9,7.7,9.4c0,3.1-1.4,5.6-4.1,7.6c-2.8,1.9-6.3,2.9-10.7,2.9c-2.9,0-5.5-0.5-7.8-1.6
			c-2.3-1-4.1-2.5-5.3-4.3c-1.3-1.8-1.9-3.7-1.9-5.7h9.9c0,1.6,0.6,2.7,1.6,3.4c1,0.7,2.3,1.1,3.9,1.1c1.4,0,2.5-0.3,3.2-0.9
			C169,419.7,169.3,418.9,169.3,418z"/>
		<path id="XMLID_83_" class="st1" d="M202.3,418c0-0.9-0.5-1.6-1.4-2.2c-0.9-0.5-2.7-1.1-5.4-1.7c-2.6-0.6-4.8-1.4-6.5-2.3
			c-1.7-1-3-2.1-3.9-3.5c-0.9-1.4-1.3-2.9-1.3-4.7c0-3.1,1.3-5.7,3.9-7.7s5.9-3,10.1-3c4.5,0,8.1,1,10.8,3s4.1,4.7,4.1,8h-10.6
			c0-2.7-1.4-4.1-4.3-4.1c-1.1,0-2,0.3-2.8,0.9c-0.8,0.6-1.1,1.4-1.1,2.3s0.5,1.7,1.4,2.3c0.9,0.6,2.4,1.1,4.4,1.4
			c2,0.4,3.8,0.8,5.3,1.3c5.1,1.8,7.7,4.9,7.7,9.4c0,3.1-1.4,5.6-4.1,7.6c-2.8,1.9-6.3,2.9-10.7,2.9c-2.9,0-5.5-0.5-7.8-1.6
			c-2.3-1-4.1-2.5-5.3-4.3c-1.3-1.8-1.9-3.7-1.9-5.7h9.9c0,1.6,0.6,2.7,1.6,3.4c1,0.7,2.3,1.1,3.9,1.1c1.4,0,2.5-0.3,3.2-0.9
			C201.9,419.7,202.3,418.9,202.3,418z"/>
		<path id="XMLID_85_" class="st1" d="M237.6,423.9c-2.2,2.9-5.3,4.3-9.1,4.3c-3.7,0-6.5-1.1-8.5-3.2c-1.9-2.2-2.9-5.3-2.9-9.3v-22
			h10.6v22.1c0,2.9,1.4,4.4,4.2,4.4c2.4,0,4.2-0.9,5.2-2.6v-24h10.6v34h-9.9L237.6,423.9z"/>
		<path id="XMLID_87_" class="st1" d="M274.2,403.2l-3.5-0.3c-3.3,0-5.5,1-6.4,3.1v21.5h-10.6v-34h9.9l0.3,4.4c1.8-3.3,4.3-5,7.4-5
			c1.1,0,2.1,0.1,3,0.4L274.2,403.2z"/>
		<path id="XMLID_89_" class="st1" d="M296.2,427.5c-0.4-0.7-0.7-1.7-1-3c-1.9,2.4-4.7,3.7-8.2,3.7c-3.2,0-5.9-1-8.2-2.9
			c-2.2-1.9-3.4-4.4-3.4-7.3c0-3.7,1.4-6.5,4.1-8.3c2.7-1.9,6.7-2.8,11.9-2.8h3.3v-1.8c0-3.1-1.4-4.7-4-4.7c-2.5,0-3.8,1.2-3.8,3.7
			h-10.6c0-3.3,1.4-5.9,4.2-8s6.4-3.1,10.7-3.1s7.8,1.1,10.3,3.2s3.8,5,3.9,8.7v15c0,3.1,0.5,5.5,1.4,7.2v0.5h-10.6V427.5z
			 M289.6,420.6c1.3,0,2.4-0.3,3.3-0.8c0.9-0.6,1.5-1.2,1.9-1.9v-5.4h-3.1c-3.7,0-5.5,1.7-5.5,5c0,1,0.3,1.7,1,2.3
			C287.7,420.3,288.6,420.6,289.6,420.6z"/>
		<path id="XMLID_92_" class="st1" d="M322.3,427.5h-10.6v-48.2h10.6V427.5z"/>
		<path id="XMLID_94_" class="st1" d="M328.8,384.8c0-1.5,0.5-2.7,1.6-3.7s2.5-1.4,4.2-1.4s3.1,0.5,4.2,1.4s1.6,2.2,1.6,3.7
			s-0.5,2.7-1.6,3.7s-2.5,1.4-4.2,1.4s-3.1-0.5-4.2-1.4S328.8,386.3,328.8,384.8z M340,427.5h-10.6v-34H340V427.5z"/>
		<path id="XMLID_97_" class="st1" d="M356.2,393.6l0.3,4c2.3-3.1,5.6-4.6,9.7-4.6c3.5,0,6.2,1.1,7.9,3.2c1.7,2.1,2.7,5.3,2.7,9.5
			v21.9h-10.6v-21.5c0-1.7-0.3-3-1-3.8c-0.7-0.8-1.9-1.2-3.8-1.2c-2.1,0-3.6,0.8-4.6,2.4v24h-10.6v-34h10V393.6z"/>
		<path id="XMLID_99_" class="st1" d="M396.4,414.9l-3,3v9.7h-10.6v-48.3h10.6v25.6l1.1-1.4l8-9.9h12.7l-11.9,14l12.7,20h-12.1
			L396.4,414.9z"/>
	</g>
	<g id="XMLID_1_">
		<path id="XMLID_2_" d="M115.5,462.7c-2.9,0-5.1-0.9-6.7-2.6c-1.5-1.7-2.3-4.1-2.3-7.3c0-3.2,0.8-5.7,2.4-7.5
			c1.6-1.8,3.9-2.6,6.9-2.6c2,0,3.9,0.4,5.5,1.1l-1.2,3.3c-1.7-0.7-3.2-1-4.3-1c-3.3,0-5,2.2-5,6.6c0,2.2,0.4,3.8,1.2,4.9
			c0.8,1.1,2,1.6,3.7,1.6c1.8,0,3.6-0.5,5.2-1.4v3.6c-0.7,0.4-1.5,0.7-2.3,0.9C117.7,462.6,116.7,462.7,115.5,462.7z"/>
		<path id="XMLID_4_" d="M142.5,452.6c0,3.2-0.8,5.6-2.4,7.4c-1.6,1.8-3.9,2.7-6.8,2.7c-1.8,0-3.4-0.4-4.8-1.2
			c-1.4-0.8-2.4-2-3.2-3.5c-0.7-1.5-1.1-3.3-1.1-5.3c0-3.1,0.8-5.6,2.4-7.3c1.6-1.8,3.9-2.6,6.8-2.6c2.8,0,5,0.9,6.6,2.7
			C141.7,447.2,142.5,449.6,142.5,452.6z M128.5,452.6c0,4.5,1.6,6.7,4.9,6.7c3.3,0,4.9-2.2,4.9-6.7c0-4.4-1.6-6.6-4.9-6.6
			c-1.7,0-3,0.6-3.7,1.7S128.5,450.5,128.5,452.6z"/>
		<path id="XMLID_7_" d="M160.9,462.3l-0.6-2.5h-0.2c-0.6,0.9-1.4,1.6-2.4,2.1c-1.1,0.5-2.3,0.8-3.6,0.8c-2.3,0-4.1-0.6-5.2-1.7
			c-1.1-1.1-1.7-2.9-1.7-5.3V443h4.1v11.9c0,1.5,0.3,2.6,0.9,3.3c0.6,0.7,1.6,1.1,2.8,1.1c1.7,0,3-0.5,3.8-1.5s1.2-2.8,1.2-5.2V443
			h4.1v19.3H160.9z"/>
		<path id="XMLID_20_" d="M179.7,442.7c0.8,0,1.5,0.1,2,0.2l-0.4,3.8c-0.6-0.1-1.2-0.2-1.8-0.2c-1.6,0-3,0.5-4,1.6s-1.5,2.5-1.5,4.2
			v10h-4.1V443h3.2l0.5,3.4h0.2c0.6-1.2,1.5-2.1,2.5-2.7C177.4,443,178.5,442.7,179.7,442.7z"/>
		<path id="XMLID_22_" d="M192.5,459.3c1,0,2-0.2,3-0.5v3.1c-0.5,0.2-1,0.4-1.8,0.5c-0.7,0.1-1.5,0.2-2.2,0.2c-3.9,0-5.8-2-5.8-6.1
			v-10.4h-2.6v-1.8l2.8-1.5l1.4-4.1h2.5v4.3h5.5v3.1h-5.5v10.3c0,1,0.2,1.7,0.7,2.2C191.1,459.1,191.7,459.3,192.5,459.3z"/>
		<path id="XMLID_24_" d="M199.1,437.9c0-0.7,0.2-1.3,0.6-1.7c0.4-0.4,1-0.6,1.7-0.6s1.3,0.2,1.7,0.6s0.6,1,0.6,1.7
			c0,0.7-0.2,1.2-0.6,1.6c-0.4,0.4-1,0.6-1.7,0.6s-1.3-0.2-1.7-0.6C199.3,439.2,199.1,438.6,199.1,437.9z M203.5,462.3h-4.1V443h4.1
			V462.3z"/>
		<path id="XMLID_27_" d="M217.8,462.7c-3,0-5.3-0.9-7-2.6c-1.7-1.8-2.5-4.2-2.5-7.2c0-3.2,0.8-5.6,2.4-7.4c1.6-1.8,3.7-2.7,6.5-2.7
			c2.5,0,4.6,0.8,6,2.3c1.5,1.5,2.2,3.7,2.2,6.4v2.2h-12.9c0.1,1.9,0.6,3.3,1.5,4.3s2.3,1.5,4,1.5c1.1,0,2.2-0.1,3.2-0.3
			s2-0.6,3.2-1.1v3.3c-1,0.5-2,0.8-3,1C220.2,462.6,219.1,462.7,217.8,462.7z M217,445.8c-1.3,0-2.3,0.4-3.1,1.2
			c-0.8,0.8-1.3,2-1.4,3.6h8.8c0-1.6-0.4-2.8-1.2-3.6S218.3,445.8,217,445.8z"/>
		<path id="XMLID_30_" d="M239.7,442.7c0.8,0,1.5,0.1,2,0.2l-0.4,3.8c-0.6-0.1-1.2-0.2-1.8-0.2c-1.6,0-3,0.5-4,1.6s-1.5,2.5-1.5,4.2
			v10h-4.1V443h3.2l0.5,3.4h0.2c0.6-1.2,1.5-2.1,2.5-2.7C237.4,443,238.5,442.7,239.7,442.7z"/>
		<path id="XMLID_32_" d="M266.7,462.3l-0.8-2.7h-0.1c-0.9,1.2-1.9,2-2.8,2.4c-0.9,0.4-2.2,0.6-3.6,0.6c-1.9,0-3.4-0.5-4.4-1.5
			c-1.1-1-1.6-2.5-1.6-4.3c0-2,0.7-3.5,2.2-4.5c1.5-1,3.7-1.6,6.8-1.7l3.3-0.1v-1c0-1.2-0.3-2.2-0.9-2.8s-1.5-0.9-2.7-0.9
			c-1,0-1.9,0.1-2.8,0.4c-0.9,0.3-1.8,0.6-2.6,1l-1.3-2.9c1-0.5,2.2-1,3.4-1.2c1.2-0.3,2.4-0.4,3.5-0.4c2.5,0,4.3,0.5,5.6,1.6
			c1.3,1.1,1.9,2.8,1.9,5v13H266.7z M260.6,459.5c1.5,0,2.7-0.4,3.6-1.2c0.9-0.8,1.4-2,1.4-3.5v-1.7l-2.5,0.1
			c-1.9,0.1-3.3,0.4-4.2,1c-0.9,0.6-1.3,1.5-1.3,2.6c0,0.9,0.3,1.5,0.8,2C258.8,459.3,259.5,459.5,260.6,459.5z"/>
		<path id="XMLID_35_" d="M288.3,456.8c0,1.9-0.7,3.3-2.1,4.3s-3.3,1.5-5.9,1.5s-4.6-0.4-6.2-1.2v-3.5c2.3,1,4.4,1.6,6.3,1.6
			c2.5,0,3.8-0.8,3.8-2.3c0-0.5-0.1-0.9-0.4-1.2c-0.3-0.3-0.7-0.7-1.4-1c-0.6-0.3-1.5-0.7-2.7-1.2c-2.2-0.9-3.7-1.7-4.5-2.6
			s-1.2-2-1.2-3.3c0-1.7,0.7-2.9,2-3.8s3.1-1.4,5.4-1.4s4.4,0.5,6.4,1.4l-1.3,3.1c-2.1-0.9-3.8-1.3-5.3-1.3c-2.2,0-3.2,0.6-3.2,1.8
			c0,0.6,0.3,1.1,0.8,1.5c0.6,0.4,1.8,1,3.7,1.7c1.6,0.6,2.8,1.2,3.5,1.7s1.3,1.1,1.6,1.8C288.1,455.1,288.3,455.9,288.3,456.8z"/>
		<path id="XMLID_37_" d="M305.7,456.8c0,1.9-0.7,3.3-2.1,4.3s-3.3,1.5-5.9,1.5s-4.6-0.4-6.2-1.2v-3.5c2.3,1,4.4,1.6,6.3,1.6
			c2.5,0,3.8-0.8,3.8-2.3c0-0.5-0.1-0.9-0.4-1.2c-0.3-0.3-0.7-0.7-1.4-1c-0.6-0.3-1.5-0.7-2.7-1.2c-2.2-0.9-3.7-1.7-4.5-2.6
			s-1.2-2-1.2-3.3c0-1.7,0.7-2.9,2-3.8s3.1-1.4,5.4-1.4s4.4,0.5,6.4,1.4l-1.3,3.1c-2.1-0.9-3.8-1.3-5.3-1.3c-2.2,0-3.2,0.6-3.2,1.8
			c0,0.6,0.3,1.1,0.8,1.5c0.6,0.4,1.8,1,3.7,1.7c1.6,0.6,2.8,1.2,3.5,1.7s1.3,1.1,1.6,1.8C305.5,455.1,305.7,455.9,305.7,456.8z"/>
		<path id="XMLID_39_" d="M323.7,462.3l-0.6-2.5h-0.2c-0.6,0.9-1.4,1.6-2.4,2.1c-1.1,0.5-2.3,0.8-3.6,0.8c-2.3,0-4.1-0.6-5.2-1.7
			c-1.1-1.1-1.7-2.9-1.7-5.3V443h4.1v11.9c0,1.5,0.3,2.6,0.9,3.3c0.6,0.7,1.6,1.1,2.8,1.1c1.7,0,3-0.5,3.8-1.5s1.2-2.8,1.2-5.2V443
			h4.1v19.3H323.7z"/>
		<path id="XMLID_41_" d="M342.6,442.7c0.8,0,1.5,0.1,2,0.2l-0.4,3.8c-0.6-0.1-1.2-0.2-1.8-0.2c-1.6,0-3,0.5-4,1.6s-1.5,2.5-1.5,4.2
			v10h-4.1V443h3.2l0.5,3.4h0.2c0.6-1.2,1.5-2.1,2.5-2.7C340.3,443,341.4,442.7,342.6,442.7z"/>
		<path id="XMLID_43_" d="M360.3,462.3l-0.8-2.7h-0.1c-0.9,1.2-1.9,2-2.8,2.4c-0.9,0.4-2.2,0.6-3.6,0.6c-1.9,0-3.4-0.5-4.4-1.5
			c-1.1-1-1.6-2.5-1.6-4.3c0-2,0.7-3.5,2.2-4.5s3.7-1.6,6.8-1.7l3.3-0.1v-1c0-1.2-0.3-2.2-0.9-2.8s-1.5-0.9-2.7-0.9
			c-1,0-1.9,0.1-2.8,0.4c-0.9,0.3-1.8,0.6-2.6,1l-1.3-2.9c1-0.5,2.2-1,3.4-1.2c1.2-0.3,2.4-0.4,3.5-0.4c2.5,0,4.3,0.5,5.6,1.6
			c1.3,1.1,1.9,2.8,1.9,5v13H360.3z M354.2,459.5c1.5,0,2.7-0.4,3.6-1.2c0.9-0.8,1.4-2,1.4-3.5v-1.7l-2.5,0.1
			c-1.9,0.1-3.3,0.4-4.2,1c-0.9,0.6-1.3,1.5-1.3,2.6c0,0.9,0.3,1.5,0.8,2C352.4,459.3,353.1,459.5,354.2,459.5z"/>
		<path id="XMLID_46_" d="M385.9,462.3h-4.1v-11.8c0-1.5-0.3-2.6-0.9-3.3c-0.6-0.7-1.5-1.1-2.9-1.1c-1.7,0-3,0.5-3.8,1.5
			s-1.2,2.7-1.2,5.1v9.6h-4.1V443h3.2l0.6,2.5h0.2c0.6-0.9,1.4-1.6,2.5-2.1s2.3-0.8,3.6-0.8c4.6,0,6.9,2.4,6.9,7.1L385.9,462.3
			L385.9,462.3z"/>
		<path id="XMLID_48_" d="M399.4,462.7c-2.9,0-5.1-0.9-6.7-2.6c-1.5-1.7-2.3-4.1-2.3-7.3c0-3.2,0.8-5.7,2.4-7.5
			c1.6-1.8,3.9-2.6,6.9-2.6c2,0,3.9,0.4,5.5,1.1l-1.2,3.3c-1.7-0.7-3.2-1-4.3-1c-3.3,0-5,2.2-5,6.6c0,2.2,0.4,3.8,1.2,4.9
			c0.8,1.1,2,1.6,3.7,1.6c1.8,0,3.6-0.5,5.2-1.4v3.6c-0.7,0.4-1.5,0.7-2.3,0.9C401.6,462.6,400.6,462.7,399.4,462.7z"/>
		<path id="XMLID_50_" d="M417.7,462.7c-3,0-5.3-0.9-7-2.6c-1.7-1.8-2.5-4.2-2.5-7.2c0-3.2,0.8-5.6,2.4-7.4c1.6-1.8,3.7-2.7,6.5-2.7
			c2.5,0,4.6,0.8,6,2.3c1.5,1.5,2.2,3.7,2.2,6.4v2.2h-12.9c0.1,1.9,0.6,3.3,1.5,4.3s2.3,1.5,4,1.5c1.1,0,2.2-0.1,3.2-0.3
			s2-0.6,3.2-1.1v3.3c-1,0.5-2,0.8-3,1C420.2,462.6,419,462.7,417.7,462.7z M417,445.8c-1.3,0-2.3,0.4-3.1,1.2
			c-0.8,0.8-1.3,2-1.4,3.6h8.8c0-1.6-0.4-2.8-1.2-3.6C419.3,446.2,418.3,445.8,417,445.8z"/>
		<path id="XMLID_53_" d="M442.8,456.8c0,1.9-0.7,3.3-2.1,4.3s-3.3,1.5-5.9,1.5s-4.6-0.4-6.2-1.2v-3.5c2.3,1,4.4,1.6,6.3,1.6
			c2.5,0,3.8-0.8,3.8-2.3c0-0.5-0.1-0.9-0.4-1.2c-0.3-0.3-0.7-0.7-1.4-1c-0.6-0.3-1.5-0.7-2.7-1.2c-2.2-0.9-3.7-1.7-4.5-2.6
			s-1.2-2-1.2-3.3c0-1.7,0.7-2.9,2-3.8s3.1-1.4,5.4-1.4s4.4,0.5,6.4,1.4l-1.3,3.1c-2.1-0.9-3.8-1.3-5.3-1.3c-2.2,0-3.2,0.6-3.2,1.8
			c0,0.6,0.3,1.1,0.8,1.5c0.6,0.4,1.8,1,3.7,1.7c1.6,0.6,2.8,1.2,3.5,1.7s1.3,1.1,1.6,1.8C442.7,455.1,442.8,455.9,442.8,456.8z"/>
	</g>
</g>
</svg>
